<svg width="32" height="32" viewBox="0 0 32 32" fill="none" xmlns="http://www.w3.org/2000/svg">
<path d="M27.6837 13.7892C27.4306 13.5417 27.1986 13.3355 26.9877 13.2117C24.3937 11.3761 21.5044 9.56119 18.3409 7.78749C18.1511 7.68437 17.9192 7.58124 17.6661 7.49875C17.413 7.41625 17.2021 7.375 17.0123 7.375C16.8225 7.375 16.717 7.41625 16.717 7.51937V10.4893C16.717 10.5924 16.717 10.6955 16.7592 10.7987C16.8014 10.9018 16.8225 10.9637 16.8436 11.0255C16.8647 11.0874 16.9279 11.1493 17.0123 11.2318C17.0967 11.3143 17.1599 11.3761 17.2021 11.3968C17.2443 11.4174 17.3286 11.4999 17.4763 11.603C17.6239 11.7061 17.7293 11.7886 17.7926 11.8299C18.0457 12.0155 18.8049 12.4899 19.9859 13.253C15.9156 13.253 10.1793 13.253 9.25132 13.2942C7.90158 13.3148 6.50967 13.3355 5.11775 13.3355C5.07557 13.3355 4.99121 13.3355 4.88576 13.3355C4.78032 13.3355 4.67487 13.3355 4.59051 13.3355C4.50615 13.3355 4.42179 13.3355 4.31634 13.3355C4.2109 13.3355 4.14763 13.3561 4.10545 13.3973C4.06327 13.4386 4.02109 13.4592 4.02109 13.5211V14.0161C4.02109 14.1811 4.02109 14.3873 4.04218 14.6348C4.06327 14.8823 4.06327 15.1298 4.06327 15.336C4.06327 15.5423 4.06327 15.7692 4.06327 15.9754C4.06327 16.2229 4.06327 16.5941 4.02109 17.0685C4.02109 17.2541 4 17.481 4 17.7697C4 17.811 4.02109 17.8522 4.08436 17.8729C4.14763 17.8935 4.2109 17.9141 4.29525 17.9141C4.37961 17.9141 4.48506 17.9141 4.56942 17.9141C4.65378 17.9141 4.75923 17.9141 4.88576 17.9141C5.0123 17.9141 5.09666 17.9141 5.13884 17.9141C7.50088 17.8729 16.3796 17.8729 20.7663 17.9141C19.4587 18.8216 18.4253 19.5022 17.7083 19.894C16.9912 20.2859 16.6116 20.5747 16.6116 20.7603V21.2553C16.6116 21.5646 16.6116 21.9977 16.6116 22.534C16.6116 23.0702 16.6116 23.524 16.6116 23.8539C16.6116 23.9364 16.6116 24.0602 16.6116 24.2046C16.6116 24.3489 16.6116 24.4727 16.6116 24.5552C16.6116 24.6583 16.7592 24.6377 17.0334 24.5552C17.3076 24.4727 17.5606 24.3283 17.7504 24.2046C21.7153 21.8121 24.7522 19.8322 26.8822 18.306C26.9666 18.2441 27.0721 18.1616 27.2619 18.0378C27.4517 17.9141 27.5571 17.8522 27.5993 17.811C27.6415 17.7697 27.7047 17.7079 27.7891 17.6254C27.8735 17.5429 27.9156 17.4604 27.9367 17.3572C27.9578 17.2541 27.9789 17.1716 27.9789 17.0272V16.9241V16.8829C27.9789 16.8829 27.9789 16.8623 27.9789 16.8416V16.7385C27.9789 16.1816 27.9789 15.6248 28 15.0267V14.4904C28 14.3667 27.8735 14.1811 27.5993 13.913L27.6837 13.7892Z" fill="#FF575B"/>
</svg>
