<svg width="1394" height="139" viewBox="0 0 1394 139" fill="none" xmlns="http://www.w3.org/2000/svg">
<path d="M31.0305 44.7087C31.0305 45.8853 31.6414 46.8265 32.6187 47.6501C33.5961 48.4737 34.8177 49.062 36.2837 49.6502C37.7497 50.2385 39.4601 50.7091 41.4148 51.2974C43.3694 51.8857 45.3241 52.5916 47.5231 53.4152C49.7221 54.2388 51.6768 55.2977 53.8758 56.5919C56.0749 57.8861 58.0295 59.5333 59.862 61.651C61.6946 63.7688 63.4049 66.2396 64.9931 69.0633C66.5813 71.887 67.6808 75.4167 68.5359 79.7699C69.3911 84.1232 69.8798 88.947 70.0019 94.3592C70.0019 119.537 61.3281 133.538 44.1025 136.362C41.6591 136.715 38.6049 136.95 34.8177 136.833C31.0305 136.715 27.1212 136.597 22.9675 136.244C18.8138 135.891 14.9044 135.185 11.1172 134.127C7.33005 133.068 4.52019 131.773 2.80985 130.244C1.83251 129.42 1.0995 127.891 0.732998 125.773C0.366496 123.655 0.122167 119.655 0 113.537C0 109.654 0 106.595 0 104.125C0 101.654 -3.25403e-06 99.7713 0.366499 98.4771C0.733001 97.1829 0.977335 96.2416 1.34384 95.771C1.71034 95.3004 2.32118 95.1828 3.17636 95.3004C3.54286 95.3004 4.27586 95.4181 5.49753 95.6534C31.7635 100.124 44.4689 98.5948 43.3694 91.3001C43.3694 90.8295 43.1251 90.3589 42.8808 89.7706C42.3921 88.2411 41.4148 86.9469 40.0709 85.7703C38.7271 84.5938 37.2611 83.7702 35.5507 82.9466C33.8404 82.123 31.8857 81.5348 29.8089 80.8288C27.732 80.1229 25.6552 79.2993 23.4562 78.3581C21.2571 77.4168 19.1803 76.3579 17.1034 75.0637C15.0266 73.7695 13.0719 72.1224 11.3616 70.1222C9.65122 68.1221 8.06305 65.6513 6.71921 62.9453C5.37537 60.2392 4.39803 56.8272 3.66503 52.5916C2.93202 48.356 2.80985 43.7675 2.93202 38.7083C3.17635 33.1785 4.03152 28.237 5.49753 23.8838C6.96354 19.5305 8.79606 16.0009 11.2394 13.1771C13.6828 10.3534 16.3704 8.11798 19.669 6.35315C22.9675 4.58833 26.3882 3.29413 29.931 2.58819C33.4739 1.88226 37.3832 1.5293 41.5369 1.5293C52.7763 1.5293 61.6946 3.41178 68.1694 7.29439C68.7803 7.64736 69.2689 8.35329 69.7576 9.41219C70.2463 10.4711 70.3685 11.6476 70.3685 12.7065V19.2952C70.3685 20.2365 70.3685 21.5307 70.3685 23.1778C70.3685 24.825 70.3685 26.1192 70.2463 27.1781C70.1241 28.237 70.1241 29.5312 70.0019 30.8254C69.8798 32.1196 69.7576 33.2962 69.5133 34.2374C69.269 35.1787 69.0246 36.0022 68.7803 36.7082C68.5359 37.4141 68.1694 38.12 67.6808 38.473C67.1921 38.826 66.8256 38.9436 66.2148 38.826C62.0611 38.0024 58.8847 37.4141 56.6857 37.0611C54.4867 36.7082 51.799 36.2376 48.5005 35.8846C45.2019 35.5316 42.6364 35.2963 40.9261 35.5316C39.2158 35.7669 37.5054 36.1199 35.6729 36.7082C33.8404 37.2964 32.6187 38.2377 32.0079 39.5319C31.397 40.8261 31.1527 42.5909 31.2749 44.7087H31.0305Z" fill="#FF575B"/>
<path d="M118.15 0.11792C124.502 0.11792 130.244 1.29446 135.131 3.64756C140.018 6.00067 144.171 9.41266 147.348 13.5306C150.524 17.6485 153.09 22.943 155.166 29.0611C157.243 35.1791 158.709 41.6502 159.442 48.4742C160.175 55.2982 160.664 62.8281 160.664 70.9463C160.664 75.4172 160.542 79.7704 160.175 83.8883C159.809 88.0063 159.32 92.3595 158.465 97.0657C157.61 101.772 156.51 106.007 155.166 109.89C153.823 113.773 152.112 117.538 149.791 121.185C147.47 124.832 144.904 127.891 141.972 130.362C139.04 132.833 135.497 134.833 131.222 136.363C126.946 137.892 122.426 138.598 117.295 138.598C110.82 138.598 105.078 137.539 100.069 135.304C95.0601 133.068 90.9064 130.009 87.6079 126.009C84.3093 122.009 81.6217 116.949 79.4226 110.831C77.2236 104.713 75.8798 98.1246 75.0246 90.7123C74.1694 83.3001 73.8029 75.1819 73.9251 66.0048C73.9251 58.4748 74.5359 51.5332 75.5133 45.0622C76.4906 38.5911 78.201 32.5907 80.5222 26.9433C82.8433 21.2958 85.6532 16.5896 88.9517 12.707C92.2502 8.82439 96.4039 5.64771 101.291 3.41226C106.177 1.17681 111.675 0.11792 117.661 0.11792H118.15ZM119.249 38.2382C113.141 38.2382 108.865 40.9442 106.422 46.2387C103.978 51.5332 102.757 59.8867 102.634 70.9463C102.512 91.3006 107.521 101.537 117.539 101.537C127.557 101.537 132.321 90.477 132.321 68.3579C132.321 65.6518 132.321 63.181 132.077 60.8279C131.832 58.4748 131.588 55.8864 131.099 52.9451C130.611 50.0037 129.878 47.5329 128.9 45.5328C127.923 43.5326 126.701 41.7678 124.991 40.356C123.281 38.9441 121.326 38.2382 119.127 38.2382H119.249Z" fill="#FF575B"/>
<path d="M167.383 2.47088C169.827 2.47088 173.614 2.47088 178.501 2.47088C183.387 2.47088 187.541 2.47088 190.595 2.47088C197.559 2.47088 203.301 2.70619 207.821 3.29446C212.341 3.88274 215.884 4.94163 218.571 6.5888C223.58 9.64783 227.734 14.2364 231.155 20.4721C234.575 26.7078 236.408 33.2965 236.774 40.3558C237.019 45.768 236.774 50.7095 236.164 55.298C235.553 59.8866 234.453 63.8868 232.987 67.1812C231.521 70.4755 229.811 73.5345 227.734 76.123C225.657 78.7114 223.458 80.9468 221.137 82.7116C218.816 84.4765 216.372 85.8883 213.685 87.0649C210.997 88.2414 208.432 89.065 206.11 89.6533C203.789 90.2416 201.346 90.4769 198.903 90.5945C197.559 90.8298 195.726 90.8298 193.649 90.8298C193.649 94.4771 193.894 100.595 194.138 109.184C194.382 117.773 194.504 124.479 194.627 129.185C194.627 129.421 194.627 129.891 194.627 130.597C194.627 131.303 194.627 131.891 194.627 132.362C194.627 132.833 194.627 133.303 194.627 133.892C194.627 134.48 194.627 134.833 194.382 135.068C194.138 135.303 194.016 135.539 193.771 135.539H166.65C166.65 135.539 166.039 135.303 165.917 134.95C165.795 134.598 165.673 134.127 165.551 133.421C165.429 132.715 165.551 132.244 165.551 131.656C165.551 131.068 165.551 130.48 165.551 129.774C165.551 129.068 165.551 128.597 165.551 128.362C165.551 121.185 165.551 111.067 165.551 98.1245C165.551 85.1824 165.551 75.6523 165.551 69.5343C165.673 50.2388 165.551 30.9434 164.94 11.8833C164.94 5.41226 165.673 2.11792 167.139 2.11792L167.383 2.47088ZM192.794 56.2392C192.794 56.2392 192.794 57.0628 193.038 57.2981C193.283 57.5335 193.405 57.8864 193.527 58.0041C193.649 58.1217 194.016 58.2394 194.382 58.357C194.749 58.4747 195.115 58.4747 195.237 58.4747H197.07C200.613 58.4747 203.423 57.5334 205.622 55.651C207.821 53.7685 208.92 50.7095 208.92 46.3562C208.92 42.2383 207.576 39.2969 204.889 37.5321C202.201 35.7673 199.025 35.0613 195.237 35.6496C194.504 35.6496 193.771 36.1202 193.038 36.9438C192.305 37.7674 192.061 38.9439 192.061 40.4735C192.061 46.1209 192.305 51.4154 192.672 56.2392H192.794Z" fill="#FF575B"/>
<path d="M242.394 2.47066C244.349 2.47066 247.281 2.47066 251.19 2.353C255.1 2.23535 258.765 2.23535 262.063 2.23535C265.362 2.23535 268.294 2.23535 270.981 2.47066C271.47 2.47066 271.714 3.17659 271.959 4.35314C272.203 5.52969 272.325 7.29452 272.325 9.76528C272.325 12.236 272.325 14.4715 272.325 16.7069C272.325 18.9424 272.203 21.7661 272.081 25.4134C271.959 29.0607 271.836 31.8844 271.836 33.7669C271.836 34.8258 271.836 36.0024 271.836 37.0613C271.836 38.1201 271.836 39.6497 271.836 41.5321C271.836 41.7675 271.836 42.2381 271.836 43.0617C271.836 43.8852 271.836 44.5912 271.836 45.0618C271.836 45.5324 271.836 46.2383 271.959 46.8266C272.081 47.4149 272.203 48.0032 272.569 48.3561C272.936 48.7091 273.302 48.9444 273.791 48.9444C275.257 49.0621 276.723 49.1797 278.311 49.1797C279.899 49.1797 281.732 49.1797 283.931 49.1797C286.13 49.1797 287.596 49.1797 288.573 49.1797C288.696 49.1797 289.062 49.1797 289.673 49.1797C290.284 49.1797 290.772 49.1797 291.017 49.1797C291.261 49.1797 291.75 49.1797 292.116 48.9444C292.483 48.7091 292.849 48.5915 293.094 48.3561C293.338 48.1208 293.338 47.6502 293.338 47.0619V44.0029L293.216 12.236C293.216 11.7654 293.216 10.9418 293.216 9.76528C293.216 8.58872 293.216 7.64748 293.094 6.70624C292.971 5.765 293.094 4.82376 293.094 3.88252C293.094 2.94128 293.338 2.1177 293.582 1.64708C293.827 1.17646 294.193 0.823486 294.682 0.823486C295.903 0.823486 297.247 0.823486 298.835 0.823486C300.424 0.823486 301.645 0.823486 302.745 0.823486C311.297 1.0588 316.428 1.0588 318.26 0.941144C319.115 0.941144 319.726 0.941144 320.215 0.941144C320.703 0.941144 321.07 1.29411 321.436 1.76473C321.803 2.23535 322.047 2.94128 322.047 3.88252V9.41231C321.314 52.7094 321.192 93.5357 321.925 132.009C321.925 132.715 321.803 133.303 321.559 133.774C321.314 134.244 320.948 134.597 320.703 134.833C320.459 135.068 319.848 135.303 319.115 135.421C318.382 135.539 317.894 135.656 317.405 135.656C316.916 135.656 316.183 135.656 315.206 135.656H298.469C296.026 135.656 294.682 135.303 294.193 134.715C293.704 134.127 293.46 132.597 293.46 130.244V86.947C293.46 86.947 293.46 86.4764 293.46 86.1234C293.46 85.7705 293.46 85.5352 293.46 85.2998C293.46 85.0645 293.46 84.8292 293.216 84.5939C292.971 84.3586 292.971 84.2409 292.849 84.1233C292.727 84.0056 292.483 84.0056 292.361 84.0056H289.673C287.84 84.0056 285.153 84.0056 281.488 84.2409C277.823 84.4763 275.135 84.4763 273.302 84.4763C272.936 84.4763 272.692 84.4762 272.569 84.8292C272.447 85.1822 272.325 85.4175 272.203 85.8881C272.081 86.3587 272.203 86.7117 272.203 87.1823C272.203 87.6529 272.203 88.0059 272.203 88.5942C272.203 89.1825 272.203 89.5354 272.203 89.7707V132.832C272.203 133.656 271.47 134.244 269.882 134.715C268.294 135.186 266.339 135.421 263.651 135.656C260.964 135.892 258.642 135.892 256.443 135.892C254.244 135.892 251.923 135.892 249.358 135.892C246.792 135.892 245.448 135.892 245.326 135.892C244.837 135.892 244.593 135.421 244.349 134.362C244.104 133.303 243.86 132.009 243.86 130.244C243.86 128.479 243.86 126.714 243.86 125.185C243.86 123.655 243.86 121.773 243.86 119.655C243.86 117.537 243.86 116.125 243.86 115.302C243.86 104.36 243.86 87.0647 243.249 63.2983C242.638 39.532 242.516 21.6484 242.516 9.64762C242.516 9.29465 242.516 8.47107 242.516 6.94156C242.516 5.41204 242.516 4.35314 242.516 3.64721C242.516 2.94128 242.638 2.58832 242.883 2.58832L242.394 2.47066Z" fill="#FF575B"/>
<path d="M359.308 15.8834C359.308 18.0012 359.064 20.0014 358.453 21.8838C357.842 23.7663 356.987 25.5312 355.765 27.296C354.544 29.0608 352.833 30.355 350.634 31.2963C348.435 32.2375 345.87 32.8258 342.938 32.8258C337.074 32.8258 332.676 31.4139 329.866 28.7078C327.056 26.0018 325.712 21.5309 325.712 15.6481C325.712 10.7066 327.178 6.824 329.988 4.11793C332.798 1.41187 337.074 0 342.449 0C353.566 0 359.186 5.29448 359.186 15.8834H359.308ZM328.278 42.0029C328.278 42.0029 327.911 42.9441 327.911 43.65C327.911 44.356 327.911 45.0619 327.911 45.7678C327.911 46.4738 327.911 47.1797 327.911 48.3562C327.911 49.5328 327.911 50.2387 327.911 50.7093C327.911 58.4746 328.033 71.6519 328.4 90.2415C328.766 108.831 328.889 122.008 328.889 129.774C328.889 130.009 328.889 130.479 328.889 131.068C328.889 131.656 328.889 132.244 328.889 132.715C328.889 133.186 328.889 133.656 328.889 134.244C328.889 134.833 329.011 135.186 329.255 135.421C329.499 135.656 329.622 135.892 329.988 135.892H332.92C341.105 135.656 345.503 135.421 345.992 135.421C348.924 135.421 351.001 135.421 352.467 135.656C352.956 135.656 353.689 135.656 354.422 135.656C355.155 135.656 355.888 135.656 356.498 135.656C356.743 135.656 356.987 135.539 357.109 135.186C357.231 134.833 357.354 134.48 357.354 134.009C357.354 133.539 357.354 132.95 357.354 132.48C357.354 132.009 357.354 131.421 357.354 130.715C357.354 130.009 357.354 129.538 357.354 129.303C356.865 91.065 356.743 66.3575 356.865 55.2979C356.865 52.3565 356.987 49.6504 357.354 47.062C357.598 44.1207 357.72 42.4735 357.354 42.0029C356.987 41.5322 356.132 41.2969 354.177 41.2969H329.377C329.377 41.2969 328.644 41.5322 328.522 41.8852L328.278 42.0029Z" fill="#FF575B"/>
<path d="M365.172 132.008V5.17627C365.172 3.41144 366.516 2.47021 369.082 2.47021C374.457 2.47021 383.253 2.23489 395.714 1.76427C408.175 1.29365 417.216 1.176 422.958 1.05835C423.08 1.05835 423.324 1.05835 423.691 1.05835C424.057 1.05835 424.301 1.05835 424.546 1.05835C424.79 1.05835 425.034 1.05835 425.401 1.05835C425.767 1.05835 426.012 1.05835 426.256 1.17601C426.5 1.29366 426.745 1.29366 426.867 1.41131C426.989 1.52897 427.233 1.64662 427.356 1.88193C427.478 2.11724 427.356 2.35256 427.356 2.58787C427.111 8.58828 426.867 19.7655 426.623 35.8843C424.057 35.8843 418.926 36.0019 411.352 36.2372C403.777 36.4725 397.669 36.4725 392.904 36.4725C392.66 41.767 392.66 47.0615 392.782 52.2383C392.782 54.0031 393.027 54.9444 393.393 54.9444C393.515 54.9444 393.76 54.9444 394.004 54.8267C394.248 54.7091 394.493 54.7091 394.737 54.7091C396.936 54.4738 401.456 54.2384 414.039 54.0031C414.284 54.0031 414.528 54.0031 414.894 54.0031C415.261 54.0031 415.505 54.0031 415.872 54.0031C416.238 54.0031 416.36 54.0031 416.605 54.0031C416.849 54.0031 417.094 54.0031 417.216 54.2384C417.338 54.4738 417.46 54.5914 417.46 54.8267V60.2389C417.216 71.7691 416.971 79.1813 416.849 82.4757C416.849 83.4169 416.727 84.0052 416.36 84.2405C415.994 84.4758 415.505 84.5935 414.528 84.5935C410.985 84.5935 409.03 84.8288 402.8 85.0641C396.569 85.2994 393.271 85.2994 393.027 85.2994C393.027 86.7113 392.904 88.4761 392.904 90.3586C392.904 92.241 392.904 94.2412 392.904 96.4766C392.904 98.7121 392.904 100.359 392.904 101.3C395.714 101.3 401.09 101.065 409.03 100.595C416.971 100.124 422.835 99.8886 426.745 99.8886C427.478 99.8886 427.844 99.8886 427.844 100.006C427.844 100.124 427.844 100.83 427.844 102.242C426.989 115.066 426.378 125.184 426.378 132.597C426.378 134.715 425.645 135.891 424.057 135.891H421.125C394.248 135.891 376.29 135.891 367.249 135.773C365.661 135.773 364.928 134.597 364.928 132.126L365.172 132.008Z" fill="#FF575B"/>
<path d="M479.121 1.56067C481.566 1.56067 485.356 1.56067 490.246 1.56067C495.136 1.56067 499.293 1.56067 502.349 1.56067C509.318 1.56067 515.063 1.80082 519.587 2.40119C524.11 3.00157 527.655 4.08225 530.345 5.76329C535.357 8.88524 539.514 13.5681 542.937 19.9321C546.36 26.2961 548.194 33.0203 548.561 40.2247C548.805 45.7482 548.561 50.7913 547.949 55.4743C547.338 60.1572 546.238 64.2397 544.771 67.6018C543.304 70.9639 541.592 74.0859 539.514 76.7275C537.436 79.3691 535.235 81.6506 532.912 83.4517C530.589 85.2528 528.144 86.6937 525.455 87.8945C522.765 89.0952 520.198 89.9357 517.875 90.5361C515.552 91.1365 513.107 91.3766 510.662 91.4967C509.318 91.7368 507.484 91.7368 505.406 91.7368C505.406 95.4592 505.65 101.703 505.895 110.469C506.139 119.234 506.261 126.078 506.384 130.881C506.384 131.121 506.384 131.602 506.384 132.322C506.384 133.043 506.384 133.643 506.384 134.123C506.384 134.604 506.384 135.084 506.384 135.684C506.384 136.285 506.384 136.645 506.139 136.885C505.895 137.125 505.772 137.365 505.528 137.365H478.388C478.388 137.365 477.777 137.125 477.654 136.765C477.532 136.405 477.41 135.924 477.288 135.204C477.165 134.483 477.288 134.003 477.288 133.403C477.288 132.802 477.288 132.202 477.288 131.482C477.288 130.761 477.288 130.281 477.288 130.041C477.288 122.716 477.288 112.39 477.288 99.1815C477.288 85.9732 477.288 76.2472 477.288 70.0033C477.41 50.311 477.288 30.6188 476.676 11.1666C476.676 4.56253 477.41 1.20044 478.877 1.20044L479.121 1.56067ZM504.55 56.4349C504.55 56.4349 504.55 57.2754 504.794 57.5155C505.039 57.7557 505.161 58.1159 505.283 58.236C505.406 58.356 505.772 58.4761 506.139 58.5962C506.506 58.7163 506.873 58.7163 506.995 58.7163H508.829C512.374 58.7163 515.186 57.7557 517.386 55.8345C519.587 53.9133 520.687 50.7913 520.687 46.3486C520.687 42.1459 519.342 39.1441 516.653 37.343C513.963 35.5418 510.785 34.8214 506.995 35.4218C506.261 35.4218 505.528 35.9021 504.794 36.7426C504.061 37.5831 503.816 38.7839 503.816 40.3448C503.816 46.1084 504.061 51.5118 504.428 56.4349H504.55Z" fill="#FF575B"/>
<path d="M560.419 1.56104H586.336C586.336 1.56104 586.825 1.6811 587.07 1.92124C587.314 2.16139 587.437 2.52162 587.559 3.122C587.681 3.72237 587.681 4.20268 587.803 4.68298C587.926 5.16328 587.803 5.88373 587.926 6.72425C588.048 7.56478 587.926 8.16515 587.926 8.76553C587.926 9.3659 587.926 9.96628 587.926 10.8068C587.926 11.6473 587.926 12.1276 587.926 12.4878C587.437 30.9794 587.314 47.9099 587.314 63.3995C587.314 78.8892 587.314 89.9361 587.681 96.0599C587.681 98.2212 588.048 99.422 588.781 99.6621C591.716 100.022 595.383 100.142 599.906 100.022C604.43 99.9023 622.89 99.7822 626.924 100.022C630.958 100.262 633.037 100.503 633.159 101.103C633.159 104.585 633.159 110.709 633.037 119.234C633.037 121.876 632.914 124.277 633.037 126.319C633.159 128.36 633.037 130.041 633.037 131.482C633.037 132.923 633.037 134.124 633.037 134.964C633.037 135.805 632.792 136.525 632.548 137.005C632.303 137.486 631.936 137.606 631.325 137.606H561.519C561.519 137.606 560.908 137.486 560.663 137.125C560.419 136.765 560.174 136.405 560.052 135.805C559.93 135.204 559.808 134.724 559.685 134.124C559.563 133.523 559.563 132.803 559.563 131.962C559.563 131.122 559.563 130.281 559.563 129.801V125.718C559.563 120.675 559.319 111.429 559.074 97.7409C558.83 84.0524 558.707 73.2457 558.585 65.0806C558.585 59.9174 558.585 42.0262 558.83 11.2871C558.83 10.9269 558.83 10.2064 558.83 9.12574C558.83 8.04506 558.83 7.08447 558.83 6.36402C558.83 5.64357 558.83 4.92312 558.952 4.08259C559.074 3.24207 559.196 2.52162 559.563 2.1614C559.93 1.80118 560.174 1.56104 560.663 1.56104H560.419Z" fill="#FF575B"/>
<path d="M600.273 94.1389C600.273 94.1389 599.784 93.1783 599.784 92.3378C599.784 91.4973 599.784 90.7768 599.784 90.1764C599.784 89.5761 600.029 88.7355 600.273 87.6549C600.518 86.5742 600.64 86.0939 600.64 85.9738C608.953 46.3491 614.577 31.3398 617.633 17.0509C617.877 15.9702 618.122 14.8895 618.611 13.6888C619.1 12.488 619.589 10.807 620.2 8.88578C620.811 6.96458 621.667 5.40361 622.645 4.08279C623.623 2.76197 624.601 2.04151 625.457 1.92144C636.582 0.600616 645.017 0.000244141 650.763 0.000244141C652.23 0.000244141 653.575 1.20101 655.042 3.6025C656.509 6.004 657.487 8.76572 658.221 11.7676C658.832 14.4092 661.399 24.6156 665.923 42.5067C670.446 60.3979 674.113 75.8875 677.17 88.9757C680.226 102.064 683.16 115.993 686.216 130.882C686.339 131.722 686.461 132.443 686.461 133.043C686.461 133.644 686.461 134.244 686.216 134.724C685.972 135.204 685.85 135.565 685.727 135.805C685.605 136.045 685.238 136.405 684.872 136.525C684.505 136.645 684.016 136.886 683.771 137.006C683.527 137.126 683.038 137.246 682.427 137.246C681.815 137.246 681.326 137.246 680.96 137.246H660.054C659.443 137.246 658.832 137.126 658.221 136.765C657.609 136.405 657.243 136.045 656.876 135.445C656.509 134.844 656.142 134.244 655.898 133.643C655.653 133.043 655.409 132.323 655.164 131.482C654.92 130.642 654.798 129.921 654.675 129.441L654.309 127.52C654.186 126.799 654.064 126.319 654.064 126.199C653.82 124.878 653.086 119.955 651.986 111.19C650.886 102.424 650.03 97.0207 649.663 94.9794C649.541 94.259 649.052 86.6943 648.44 86.334C647.829 85.9738 647.462 85.8537 646.973 85.8537C646.484 85.8537 645.751 85.8537 644.651 85.8537C643.55 85.8537 642.817 85.8537 642.206 85.8537C642.206 85.8537 630.958 85.9738 630.225 86.0939C629.369 86.214 628.269 94.0188 627.658 94.0188C627.046 94.0188 623.012 94.259 622.523 94.379C622.034 94.4991 621.423 94.4991 620.689 94.4991C619.956 94.4991 619.467 94.4991 619.1 94.4991C618.733 94.4991 618 94.4991 617.022 94.4991H607.486C607.486 94.4991 606.386 94.4991 605.652 94.4991C604.919 94.4991 604.307 94.4991 603.818 94.4991C603.329 94.4991 602.84 94.4991 602.351 94.4991C601.862 94.4991 601.373 94.379 601.007 94.259C600.64 94.1389 600.395 93.8988 600.151 93.6586L600.273 94.1389ZM635.604 53.9138C636.582 53.9138 639.394 54.0339 643.917 54.0339C644.406 54.0339 644.651 54.0339 644.895 53.6737C645.14 53.3135 645.262 53.0733 645.262 52.593C645.262 52.1127 645.262 51.6324 645.262 51.3923C645.262 51.1521 645.262 50.5517 645.017 49.9514C644.773 49.351 644.773 48.8707 644.773 48.8707C644.528 47.5499 644.162 45.6287 643.55 42.987C642.939 40.3454 642.572 38.184 642.206 36.3829C641.717 33.8613 640.983 32.5405 639.638 32.5405C639.394 32.5405 639.149 32.5405 638.905 32.6606C638.66 32.7807 638.538 32.9007 638.416 33.1409C638.294 33.381 638.171 33.6212 638.049 33.8614C637.927 34.1015 637.805 34.3417 637.682 34.7019C637.56 35.0621 637.56 35.3022 637.438 35.5424C637.316 35.7825 637.438 36.1428 637.316 36.503C637.193 36.8632 637.193 37.2234 637.193 37.4636C636.949 38.9045 636.46 40.9458 635.971 43.4673C635.482 45.9889 634.993 48.0302 634.748 49.7112C634.137 52.473 634.381 53.9138 635.482 54.0339L635.604 53.9138Z" fill="#FF575B"/>
<path d="M696.486 14.6489V9.8459C696.486 5.52321 696.486 3.00163 696.975 2.28118C697.464 1.56073 698.686 1.32059 700.887 1.56073C701.62 1.56073 702.232 1.56074 702.721 1.68081C711.767 1.20051 717.758 1.20051 720.814 1.68081H722.159C723.137 1.68081 723.87 2.04104 724.359 2.76149C725.215 3.24179 725.826 3.72208 726.193 4.5626C731.328 16.9303 737.929 34.101 746.12 56.0747C746.365 56.6751 746.731 57.6357 747.098 58.7163C747.465 59.797 747.954 60.7576 748.198 61.5981C748.443 62.4387 748.81 63.1591 749.176 63.9996C749.543 64.8401 749.788 65.4405 750.032 65.8008C750.277 66.161 750.521 66.4011 750.643 66.281C750.888 66.0409 751.132 65.3204 751.132 63.9996C751.132 62.6788 751.132 60.7576 750.888 58.4762C750.643 56.1948 750.643 54.2736 750.643 53.0728C750.399 34.9415 750.399 21.4932 750.399 12.7277C750.399 12.0072 750.399 11.0466 750.399 9.96596C750.399 8.88528 750.399 8.04477 750.399 7.32432V5.16297C750.399 4.32245 750.399 3.72207 750.399 3.24177C750.399 2.76148 750.521 2.28117 750.643 1.92094C750.766 1.56072 750.888 1.2005 751.132 0.960347C751.377 0.720197 751.621 0.720215 751.988 0.720215H760.057C763.969 0.960364 767.636 1.2005 771.059 1.2005C771.793 1.2005 772.649 1.2005 773.382 1.2005C774.116 1.2005 774.727 1.2005 775.216 1.08042C775.705 0.96035 776.072 1.08042 776.561 1.08042C777.05 1.08042 777.294 1.08042 777.539 1.08042C777.783 1.08042 777.906 1.20051 778.028 1.56073C778.15 1.92096 778.272 2.16111 778.395 2.40125C778.517 2.6414 778.395 3.12171 778.395 3.84216C778.395 4.56261 778.395 5.28304 778.395 5.88341C778.395 6.48379 778.395 7.4444 778.395 8.64515C778.395 9.8459 778.395 11.1667 778.395 12.2474C778.395 23.1742 778.395 39.6244 778.884 61.2379C778.884 65.8007 778.884 75.4067 779.006 89.8157C779.128 104.225 779.25 115.512 779.495 123.677C779.495 124.277 779.495 125.118 779.495 126.318C779.495 127.759 779.495 129.2 779.495 130.521C779.495 131.842 779.373 132.923 779.25 133.883C779.128 134.844 778.761 135.564 778.272 136.045C777.783 136.525 777.172 136.765 776.316 136.765H759.446C758.468 136.765 757.367 136.765 756.267 136.765C755.167 136.765 754.311 136.765 753.944 136.885C753.577 137.005 752.966 136.885 752.355 136.885C751.621 136.885 751.01 136.885 750.766 136.765C747.954 129.921 741.474 113.47 731.083 87.4142C730.594 86.3335 729.983 84.5324 729.127 81.8908C728.271 79.2491 727.538 77.2079 726.926 75.887C726.315 74.5662 725.826 73.8458 725.337 73.8458C724.848 73.8458 724.481 74.5662 724.359 76.1272C724.237 77.6882 724.359 80.0897 724.359 83.4517C724.359 86.8138 724.604 88.8551 724.604 89.8157C724.359 105.906 724.359 118.153 724.359 126.318C724.359 127.519 724.359 128.72 724.359 129.921C724.359 131.121 724.359 132.082 724.359 132.802C724.359 133.523 724.359 134.123 724.359 134.844C724.359 135.564 724.359 136.045 724.359 136.285C724.359 136.525 724.359 136.765 724.115 137.125C723.87 137.485 723.748 137.605 723.626 137.605C723.503 137.605 723.137 137.605 722.77 137.605C722.403 137.605 721.914 137.605 721.425 137.605C720.936 137.605 720.447 137.605 719.591 137.485C718.736 137.365 718.002 137.485 717.269 137.485C715.802 137.485 713.723 137.485 711.034 137.726C708.344 137.966 706.755 137.966 706.266 137.966H698.197C698.197 137.966 697.341 137.726 697.097 137.365C696.852 137.005 696.608 136.405 696.608 135.684C696.608 134.964 696.608 134.123 696.486 133.043C696.363 131.962 696.486 130.881 696.486 129.681C696.486 128.48 696.486 127.159 696.486 125.718C696.241 109.268 696.363 91.857 696.975 73.4855C697.097 63.6394 697.219 57.1554 697.219 54.1535C697.219 51.1516 697.219 44.5475 697.097 34.5813C696.975 24.6151 696.852 18.131 696.852 15.0091L696.486 14.6489Z" fill="#FF575B"/>
<path d="M819.96 44.5479C819.96 45.7487 820.572 46.7093 821.55 47.5498C822.528 48.3903 823.75 48.9907 825.217 49.5911C826.684 50.1914 828.396 50.6717 830.352 51.2721C832.308 51.8725 834.264 52.5929 836.464 53.4335C838.665 54.274 840.621 55.3547 842.822 56.6755C845.022 57.9963 846.978 59.6774 848.812 61.8387C850.646 64 852.357 66.5216 853.947 69.4034C855.536 72.2852 856.636 75.8874 857.492 80.3302C858.348 84.773 858.837 89.696 858.959 95.2195C858.959 120.915 850.279 135.204 833.041 138.086C830.596 138.446 827.54 138.687 823.75 138.566C819.96 138.446 816.048 138.326 811.892 137.966C807.735 137.606 803.823 136.885 800.033 135.805C796.244 134.724 793.432 133.403 791.72 131.842C790.742 131.002 790.009 129.441 789.642 127.279C789.275 125.118 789.031 121.036 788.908 114.792C788.908 110.829 788.908 107.707 788.908 105.186C788.908 102.664 788.908 100.743 789.275 99.4221C789.642 98.1013 789.886 97.1407 790.253 96.6604C790.62 96.1801 791.231 96.06 792.087 96.1801C792.454 96.1801 793.187 96.3002 794.41 96.5403C820.694 101.103 833.408 99.5422 832.308 92.0975C832.308 91.6172 832.063 91.1369 831.819 90.5366C831.33 88.9756 830.352 87.6548 829.007 86.454C827.662 85.2533 826.195 84.4128 824.484 83.5722C822.772 82.7317 820.816 82.1313 818.738 81.4109C816.66 80.6904 814.581 79.8499 812.381 78.8893C810.18 77.9287 808.102 76.848 806.024 75.5272C803.945 74.2064 801.989 72.5253 800.278 70.4841C798.566 68.4428 796.977 65.9212 795.632 63.1595C794.287 60.3978 793.309 56.9156 792.576 52.5929C791.842 48.2702 791.72 43.5873 791.842 38.4241C792.087 32.7806 792.943 27.7374 794.41 23.2947C795.877 18.8519 797.711 15.2497 800.156 12.3679C802.601 9.48608 805.29 7.20466 808.591 5.40353C811.892 3.60241 815.315 2.28159 818.86 1.56114C822.405 0.840695 826.318 0.480469 830.474 0.480469C841.721 0.480469 850.646 2.40166 857.125 6.36413C857.736 6.72436 858.225 7.44481 858.714 8.52548C859.203 9.60615 859.326 10.8069 859.326 11.8876V18.6118C859.326 19.5724 859.326 20.8932 859.326 22.5742C859.326 24.2553 859.326 25.5761 859.203 26.6568C859.081 27.7375 859.081 29.0583 858.959 30.3791C858.837 31.6999 858.714 32.9007 858.47 33.8613C858.225 34.8219 857.981 35.6624 857.736 36.3828C857.492 37.1033 857.125 37.8237 856.636 38.1839C856.147 38.5442 855.78 38.6643 855.169 38.5442C851.012 37.7037 847.834 37.1033 845.633 36.7431C843.433 36.3828 840.743 35.9025 837.442 35.5423C834.142 35.1821 831.574 34.9419 829.863 35.1821C828.151 35.4222 826.44 35.7825 824.606 36.3828C822.772 36.9832 821.55 37.9438 820.938 39.2646C820.327 40.5854 820.083 42.3866 820.205 44.5479H819.96Z" fill="#FF575B"/>
<path d="M910.6 1.44076C913.043 1.44076 916.829 1.44076 921.714 1.44076C926.599 1.44076 930.751 1.44076 933.805 1.44076C940.766 1.44076 946.506 1.68087 951.025 2.28115C955.543 2.88143 959.085 3.96192 961.772 5.6427C966.779 8.76414 970.931 13.4463 974.351 19.8093C977.77 26.1722 979.602 32.8953 979.969 40.0987C980.213 45.6212 979.969 50.6636 979.358 55.3457C978.748 60.0279 977.648 64.1098 976.183 67.4714C974.717 70.833 973.008 73.9544 970.931 76.5956C968.855 79.2368 966.657 81.5179 964.336 83.3187C962.016 85.1196 959.573 86.5602 956.887 87.7608C954.2 88.9613 951.635 89.8018 949.315 90.402C946.994 91.0023 944.552 91.2424 942.109 91.3625C940.766 91.6026 938.934 91.6026 936.858 91.6026C936.858 95.3243 937.102 101.567 937.346 110.331C937.59 119.095 937.713 125.939 937.835 130.741C937.835 130.981 937.835 131.461 937.835 132.181C937.835 132.902 937.835 133.502 937.835 133.982C937.835 134.462 937.835 134.943 937.835 135.543C937.835 136.143 937.835 136.503 937.59 136.744C937.346 136.984 937.224 137.224 936.98 137.224H909.868C909.868 137.224 909.257 136.984 909.135 136.623C909.013 136.263 908.89 135.783 908.768 135.063C908.646 134.342 908.768 133.862 908.768 133.262C908.768 132.662 908.768 132.061 908.768 131.341C908.768 130.621 908.768 130.14 908.768 129.9C908.768 122.577 908.768 112.252 908.768 99.046C908.768 85.8399 908.768 76.1154 908.768 69.8725C908.89 50.1834 908.768 30.4942 908.158 11.0452C908.158 4.44215 908.89 1.08057 910.356 1.08057L910.6 1.44076ZM936.003 56.3062C936.003 56.3062 936.003 57.1466 936.247 57.3867C936.491 57.6268 936.613 57.987 936.736 58.107C936.858 58.2271 937.224 58.3472 937.59 58.4672C937.957 58.5873 938.323 58.5873 938.445 58.5873H940.277C943.819 58.5873 946.628 57.6268 948.826 55.7059C951.025 53.7851 952.124 50.6636 952.124 46.2215C952.124 42.0196 950.78 39.0182 948.093 37.2174C945.407 35.4165 942.231 34.6962 938.445 35.2965C937.713 35.2965 936.98 35.7767 936.247 36.6171C935.514 37.4575 935.27 38.658 935.27 40.2187C935.27 45.9814 935.514 51.3839 935.881 56.3062H936.003Z" fill="#FF575B"/>
<path d="M1053.49 138.064H1027.97C1027.97 138.064 1027.23 137.824 1026.99 137.464C1026.74 137.103 1026.62 136.503 1026.5 135.903C1026.38 135.303 1026.5 134.462 1026.5 133.862C1026.5 133.262 1026.5 132.421 1026.5 131.581C1026.5 130.74 1026.5 130.14 1026.5 129.66V127.499C1019.78 135.663 1011.23 138.904 1000.85 137.464C994.38 136.503 989.006 132.541 984.732 125.578C980.457 118.615 978.381 109.13 978.381 97.0048C978.381 84.8791 981.068 75.3947 986.442 67.4711C991.815 59.5474 998.166 55.1053 1005.74 54.1449C1011.36 53.4245 1017.95 53.3045 1025.77 53.6646C1025.4 50.7833 1024.67 48.3822 1023.57 46.2212C1022.47 44.0602 1021.13 42.4995 1019.29 41.4189C1017.46 40.3384 1015.63 39.378 1013.55 38.7778C1011.48 38.1775 1009.04 37.8173 1006.35 37.8173C1003.66 37.8173 1000.97 37.9374 998.532 38.2975C996.09 38.6577 993.159 39.0179 990.105 39.6181C986.93 40.2184 985.22 38.8978 985.098 35.6563C984.854 31.0942 985.098 26.8922 985.465 23.1705C985.831 19.4487 986.564 14.6465 987.663 9.0039C987.907 7.68328 989.251 6.36268 991.571 5.16212C993.891 3.96156 996.945 2.88108 1000.49 2.04069C1004.03 1.2003 1008.06 0.720064 1012.45 0.479952C1016.85 0.239841 1021.13 0.479943 1025.28 1.08022C1029.43 1.6805 1033.34 2.88109 1037.12 4.68193C1040.91 6.48277 1043.84 8.88386 1045.92 11.8853C1051.78 20.1691 1054.71 37.8173 1054.71 64.9499C1054.71 68.5515 1054.96 88.4808 1055.57 124.738C1055.81 126.899 1055.81 129.66 1055.57 133.021C1055.32 136.383 1054.71 138.064 1053.61 138.064H1053.49ZM1026.38 99.766C1026.38 98.3254 1026.38 96.1644 1026.38 93.283C1026.38 90.4017 1026.38 88.1206 1026.38 86.5599C1022.84 86.3198 1019.17 86.3198 1015.26 86.4398C1014.04 86.4398 1012.94 86.68 1012.21 86.9201C1011.48 87.1602 1010.5 87.5203 1009.52 88.1206C1008.55 88.7209 1007.81 89.5613 1007.33 90.7619C1006.84 91.9624 1006.59 93.5231 1006.59 95.324C1006.59 97.8452 1007.57 99.766 1009.4 101.087C1011.23 102.407 1013.43 103.128 1016 103.128C1019.9 103.248 1023.45 102.167 1026.74 99.8861L1026.38 99.766Z" fill="#FF575B"/>
<path d="M1064.73 2.76136C1068.88 1.08058 1072.18 2.76135 1076.08 2.28112C1079.99 1.68084 1084.63 2.28109 1088.3 1.92093C1091.84 1.68081 1094.4 1.92093 1097.58 1.92093C1100.75 1.92093 1103.56 2.40115 1106.62 3.00143C1109.67 3.48165 1112.48 4.20199 1115.29 5.40255C1118.1 6.60311 1120.42 7.92376 1122.86 9.84465C1125.3 11.7655 1127.38 13.8065 1129.21 16.6878C1131.04 19.5692 1132.38 22.6906 1133.48 26.4123C1134.58 30.134 1135.32 35.2964 1135.56 39.3783C1135.8 47.6622 1134.95 56.6664 1131.77 63.8697C1128.6 71.0731 1124.81 74.7948 1119.19 79.4769C1124.93 94.0037 1130.55 108.53 1136.66 122.937C1137.15 124.018 1137.88 125.218 1138.49 126.299C1139.1 127.379 1139.96 129.06 1140.44 130.261C1140.93 131.341 1141.18 133.022 1141.18 133.742C1141.18 134.583 1141.18 134.342 1141.18 134.703C1141.18 135.063 1140.93 135.183 1140.81 135.423C1140.57 135.663 1140.44 135.783 1140.2 135.903C1139.96 136.143 1139.71 136.143 1139.35 136.263C1138.98 136.263 1138.73 136.383 1138.37 136.503C1138 136.503 1137.64 136.503 1137.27 136.503C1136.9 136.503 1136.54 136.503 1136.17 136.503C1135.8 136.503 1135.32 136.503 1134.95 136.503C1134.58 136.503 1134.09 136.503 1133.73 136.503C1126.89 136.503 1120.42 136.984 1113.45 136.984C1112.36 136.984 1111.38 136.143 1110.52 134.943C1109.67 133.742 1108.94 133.502 1108.2 131.341C1103.07 116.814 1097.58 101.447 1092.57 86.3201C1090.86 87.7608 1091.59 83.7989 1089.4 87.1605C1087.2 90.5221 1089.76 103.368 1090.25 108.771C1090.74 114.173 1090.62 126.419 1090.86 130.381C1091.1 134.342 1091.59 136.263 1089.76 137.464C1087.93 138.544 1085.85 137.464 1083.9 138.064C1081.95 138.544 1079.99 138.424 1077.92 138.544C1075.84 138.664 1072.91 138.544 1070.83 138.544C1068.76 138.544 1065.34 138.544 1063.87 138.544C1062.4 138.544 1063.38 138.424 1062.89 137.944C1062.4 137.464 1062.65 136.984 1062.53 136.503C1062.4 136.023 1062.53 135.303 1062.4 134.703C1062.4 134.102 1062.4 133.262 1062.4 132.782C1062.4 132.301 1062.4 131.581 1062.4 131.341C1062.04 111.892 1061.79 90.6421 1061.55 71.5533C1061.31 52.5845 1061.18 30.1341 1060.7 13.4463C1060.45 5.76274 1060.45 4.56219 1064.6 2.76136H1064.73ZM1087.56 52.2243C1087.56 54.6254 1087.56 52.9446 1087.81 53.785C1088.05 54.6254 1088.05 54.1452 1088.3 54.5053C1088.54 54.8655 1088.78 54.7455 1089.15 54.8655C1089.52 54.8655 1089.64 54.8655 1090.01 54.9856C1090.37 54.9856 1090.49 54.9856 1091.1 54.9856C1091.59 54.9856 1091.1 54.9856 1092.08 54.9856C1093.06 54.9856 1096.11 54.8655 1097.58 54.7455C1099.04 54.6254 1100.63 54.3853 1101.97 53.9051C1103.32 53.4248 1104.42 53.1847 1105.39 52.1042C1106.37 51.0237 1106.86 50.5435 1107.23 48.8628C1107.59 47.182 1108.08 46.4616 1107.71 43.8204C1107.47 41.1792 1106.86 36.8571 1103.2 35.1764C1099.53 33.3755 1094.65 33.2555 1090.37 33.8558C1089.76 33.8558 1088.91 34.456 1088.3 35.1764C1087.69 35.8967 1087.32 37.8176 1087.32 38.658C1087.32 42.3797 1087.2 49.9432 1087.32 52.4644L1087.56 52.2243Z" fill="#FF575B"/>
<path d="M1168.17 1.44107H1174.64C1177.21 1.44107 1182.7 1.20095 1191.37 0.960838C1200.04 0.720727 1206.27 0.480604 1210.42 0.480604C1214.58 0.480604 1219.58 0.360548 1225.57 0.480604C1231.55 0.60066 1236.44 0.600671 1240.34 0.960838C1240.71 0.960838 1240.96 1.20094 1240.96 1.56111C1240.96 3.84217 1240.96 6.84358 1240.96 10.4452C1240.96 14.0469 1240.96 17.1683 1240.96 19.9296C1240.96 22.6909 1240.83 25.2121 1240.59 27.9734C1240.59 28.2135 1240.59 28.6937 1240.59 29.414C1240.59 30.1344 1240.59 30.7347 1240.59 31.2149C1240.59 31.6951 1240.59 32.1753 1240.34 32.6555C1240.1 33.1358 1240.1 33.616 1239.86 33.8561C1239.61 34.0962 1239.37 34.2162 1239.12 34.3363C1237.66 34.5764 1235.83 34.5764 1233.87 34.5764C1227.16 34.8165 1214.58 34.8165 1196.13 34.8165C1195.89 50.7839 1195.89 63.3898 1195.89 72.514C1195.89 79.3572 1196.01 89.9221 1196.38 104.209C1196.75 118.495 1196.87 127.62 1196.87 131.581C1196.87 131.942 1196.87 132.422 1196.87 133.022C1196.87 133.622 1196.87 134.223 1196.87 134.823C1196.87 135.423 1196.87 135.903 1196.87 136.384C1196.87 136.864 1196.87 137.344 1196.62 137.584C1196.38 137.824 1196.26 138.064 1196.01 138.064C1194.3 138.064 1192.96 138.064 1191.86 137.944C1189.05 137.704 1186.98 137.704 1185.39 137.704C1184.53 137.704 1179.89 137.824 1171.83 138.184H1168.9C1168.9 138.184 1168.29 138.064 1168.17 137.704C1168.05 137.344 1167.92 136.984 1167.8 136.504C1167.68 136.024 1167.8 135.423 1167.8 134.943C1167.8 134.463 1167.8 133.862 1167.8 133.262C1167.8 132.662 1167.8 132.182 1167.8 131.942C1167.8 123.178 1167.68 112.252 1167.43 99.0463C1167.19 85.8402 1167.07 75.7555 1167.07 68.9124C1167.07 66.7514 1167.07 63.87 1167.07 60.3884C1167.07 56.9068 1167.07 52.4647 1167.07 47.3023C1167.07 42.1399 1167.07 38.058 1167.07 34.9366C1156.44 35.1767 1148.75 35.2968 1143.99 35.5369H1140.57C1139.59 35.5369 1139.1 33.616 1139.1 29.6541V29.1739C1139.1 19.2093 1139.1 12.6062 1138.86 9.24466C1138.61 4.20233 1139.22 1.68119 1140.69 1.68119C1141.18 1.68119 1142.4 1.68119 1144.35 1.68119C1146.31 1.68119 1147.41 1.68119 1147.65 1.68119C1152.66 1.9213 1159.5 1.92128 1168.17 1.80122C1168.17 1.80122 1168.41 1.68119 1168.66 1.68119L1168.17 1.44107ZM1207.49 41.1795H1213.6C1213.6 41.1795 1216.04 41.1795 1220.44 41.1795C1224.83 41.1795 1227.03 41.1795 1227.28 41.1795H1232.28C1234.24 41.1795 1235.22 41.5397 1235.46 41.8998C1235.7 42.26 1235.58 44.0608 1235.46 47.0622C1235.22 49.5834 1234.97 52.4647 1234.97 55.4661C1234.73 66.7514 1234.97 91.843 1235.46 130.981C1235.46 131.221 1235.46 131.701 1235.46 132.422C1235.46 133.142 1235.46 133.742 1235.46 134.223C1235.46 134.703 1235.46 135.183 1235.46 135.783C1235.46 136.384 1235.46 136.744 1235.22 136.984C1234.97 137.224 1234.85 137.464 1234.61 137.464C1233.02 137.464 1231.67 137.464 1230.57 137.344C1227.77 137.104 1225.69 137.104 1224.1 137.104C1223.61 137.104 1219.22 137.224 1211.03 137.584H1208.1C1208.1 137.584 1207.49 137.464 1207.37 137.104C1207.25 136.744 1207.13 136.384 1207 135.903C1206.88 135.423 1207 134.823 1207 134.343C1207 133.862 1207 133.262 1207 132.662C1207 132.062 1207 131.581 1207 131.341C1207 123.418 1206.88 109.971 1206.52 91.0026C1206.15 72.0338 1206.03 58.5876 1206.03 50.6639C1206.03 50.1837 1206.03 49.4633 1206.03 48.3828C1206.03 47.3023 1206.03 46.3419 1206.03 45.7416C1206.03 45.1413 1206.03 44.421 1206.03 43.5806C1206.03 42.7402 1206.27 42.26 1206.52 41.8998C1206.76 41.5397 1207 41.2996 1207.37 41.2996L1207.49 41.1795Z" fill="#FF575B"/>
<path d="M1250.24 133.622V4.20198C1250.24 2.40114 1251.58 1.4407 1254.15 1.4407C1259.52 1.4407 1268.31 1.20057 1280.77 0.720351C1293.23 0.240128 1302.26 0.120056 1308 0C1308.13 0 1308.37 0 1308.74 0C1309.1 0 1309.35 0 1309.59 0C1309.84 0 1310.08 0 1310.45 0C1310.81 0 1311.06 2.56493e-05 1311.3 0.120081C1311.55 0.240137 1311.79 0.240143 1311.91 0.360198C1312.03 0.480254 1312.28 0.600321 1312.4 0.840432C1312.52 1.08054 1312.4 1.32063 1312.4 1.56074C1312.16 7.68358 1311.91 19.0889 1311.67 35.5365C1309.1 35.5365 1303.97 35.6566 1296.4 35.8967C1288.83 36.1368 1282.72 36.1368 1277.96 36.1368C1277.72 41.5393 1277.72 46.9418 1277.84 52.2243C1277.84 54.0251 1278.08 54.9855 1278.45 54.9855C1278.57 54.9855 1278.82 54.9856 1279.06 54.8655C1279.3 54.7454 1279.55 54.7454 1279.79 54.7454C1281.99 54.5053 1289.32 54.2652 1301.9 54.0251C1302.14 54.0251 1302.39 54.0251 1302.75 54.0251C1303.12 54.0251 1303.36 54.0251 1303.73 54.0251C1304.1 54.0251 1304.22 54.0251 1304.46 54.0251C1304.71 54.0251 1304.95 54.0251 1305.07 54.2652C1305.19 54.5053 1305.32 54.6254 1305.32 54.8655V60.388C1305.07 72.1535 1304.83 79.717 1304.71 83.0786C1304.71 84.039 1304.58 84.6393 1304.22 84.8794C1303.85 85.1195 1303.36 85.2396 1302.39 85.2396C1298.84 85.2396 1294.08 85.4797 1287.85 85.7198C1281.62 85.9599 1278.33 85.9599 1278.08 85.9599C1278.08 87.4005 1277.96 89.2014 1277.96 91.1223C1277.96 93.0432 1277.96 95.0841 1277.96 97.3652C1277.96 99.6462 1277.96 101.327 1277.96 102.287C1280.77 102.287 1286.14 102.047 1294.08 101.567C1302.02 101.087 1307.88 100.847 1311.79 100.847C1312.52 100.847 1312.89 100.847 1312.89 100.967C1312.89 101.087 1312.89 101.807 1312.89 103.248C1312.03 116.334 1311.42 126.659 1311.42 134.222C1311.42 136.383 1310.69 137.584 1309.1 137.584H1306.17C1279.3 137.584 1261.35 137.584 1252.31 137.464C1250.73 137.464 1249.99 136.263 1249.99 133.742L1250.24 133.622Z" fill="#FF575B"/>
<path d="M1353.92 44.5407C1353.92 45.7412 1354.53 46.7017 1355.51 47.5421C1356.49 48.3825 1357.71 48.9827 1359.18 49.583C1360.64 50.1833 1362.35 50.6635 1364.3 51.2638C1366.26 51.8641 1368.21 52.5844 1370.41 53.4248C1372.61 54.2652 1374.56 55.3457 1376.76 56.6663C1378.96 57.9869 1380.91 59.6677 1382.75 61.8287C1384.58 63.9897 1386.29 66.5109 1387.88 69.3922C1389.46 72.2736 1390.56 75.8752 1391.42 80.3173C1392.27 84.7593 1392.76 89.6816 1392.88 95.2042C1392.88 120.896 1384.21 135.183 1366.99 138.064C1364.55 138.424 1361.5 138.664 1357.71 138.544C1353.92 138.424 1350.02 138.304 1345.86 137.944C1341.71 137.584 1337.8 136.864 1334.02 135.783C1330.23 134.703 1327.42 133.382 1325.71 131.821C1324.74 130.981 1324 129.42 1323.64 127.259C1323.27 125.098 1323.03 121.016 1322.9 114.773C1322.9 110.811 1322.9 107.69 1322.9 105.169C1322.9 102.648 1322.9 100.727 1323.27 99.4061C1323.64 98.0855 1323.88 97.1251 1324.25 96.6449C1324.61 96.1646 1325.22 96.0446 1326.08 96.1646C1326.44 96.1646 1327.18 96.2847 1328.4 96.5248C1354.66 101.087 1367.36 99.5262 1366.26 92.0827C1366.26 91.6025 1366.01 91.1223 1365.77 90.522C1365.28 88.9613 1364.3 87.6407 1362.96 86.4401C1361.62 85.2395 1360.15 84.3992 1358.44 83.5588C1356.73 82.7184 1354.78 82.1181 1352.7 81.3978C1350.63 80.6775 1348.55 79.8371 1346.35 78.8766C1344.15 77.9162 1342.08 76.8357 1340 75.515C1337.92 74.1944 1335.97 72.5137 1334.26 70.4727C1332.55 68.4318 1330.96 65.9106 1329.62 63.1493C1328.28 60.388 1327.3 56.9064 1326.57 52.5844C1325.83 48.2624 1325.71 43.5802 1325.83 38.4178C1326.08 32.7752 1326.93 27.7329 1328.4 23.2908C1329.86 18.8488 1331.7 15.2471 1334.14 12.3658C1336.58 9.48442 1339.27 7.20334 1342.57 5.40251C1345.86 3.60167 1349.28 2.28106 1352.82 1.56073C1356.37 0.840394 1360.27 0.480225 1364.43 0.480225C1375.66 0.480225 1384.58 2.40114 1391.05 6.36297C1391.66 6.72314 1392.15 7.44348 1392.64 8.52398C1393.13 9.60448 1393.25 10.805 1393.25 11.8855V18.6087C1393.25 19.5691 1393.25 20.8897 1393.25 22.5705C1393.25 24.2513 1393.25 25.5719 1393.13 26.6524C1393 27.7329 1393 29.0535 1392.88 30.3741C1392.76 31.6947 1392.64 32.8953 1392.39 33.8557C1392.15 34.8162 1391.91 35.6566 1391.66 36.3769C1391.42 37.0972 1391.05 37.8175 1390.56 38.1777C1390.07 38.5379 1389.71 38.658 1389.1 38.5379C1384.94 37.6975 1381.77 37.0972 1379.57 36.7371C1377.37 36.3769 1374.69 35.8967 1371.39 35.5365C1368.09 35.1763 1365.53 34.9362 1363.82 35.1763C1362.11 35.4164 1360.4 35.7766 1358.56 36.3769C1356.73 36.9772 1355.51 37.9376 1354.9 39.2582C1354.29 40.5788 1354.05 42.3797 1354.17 44.5407H1353.92Z" fill="#FF575B"/>
</svg>
