<svg width="370" height="346" viewBox="0 0 370 346" fill="none" xmlns="http://www.w3.org/2000/svg">
<path d="M23.986 34.559C23.986 35.4685 24.4582 36.1961 25.2137 36.8327C25.9691 37.4693 26.9135 37.924 28.0467 38.3788C29.1799 38.8335 30.5019 39.1973 32.0129 39.652C33.5238 40.1067 35.0347 40.6524 36.7345 41.289C38.4343 41.9256 39.9453 42.7441 41.6451 43.7445C43.3449 44.7449 44.8558 46.0181 46.2723 47.6552C47.6888 49.2922 49.0109 51.202 50.2385 53.3847C51.4661 55.5674 52.316 58.2958 52.9771 61.6607C53.6381 65.0257 54.0158 68.7545 54.1102 72.938C54.1102 92.4003 47.4055 103.223 34.0904 105.405C32.2017 105.678 29.8409 105.86 26.9135 105.769C23.986 105.678 20.9642 105.587 17.7535 105.314C14.5427 105.042 11.5209 104.496 8.59342 103.677C5.66599 102.859 3.49403 101.859 2.17196 100.676C1.41649 100.04 0.849894 98.8574 0.566594 97.2204C0.283295 95.5833 0.0944332 92.4912 0 87.762C0 84.7608 0 82.3963 0 80.4864C0 78.5766 -2.51531e-06 77.1214 0.283297 76.121C0.566597 75.1206 0.755463 74.3931 1.03876 74.0293C1.32206 73.6655 1.79423 73.5746 2.45527 73.6655C2.73857 73.6655 3.30516 73.7565 4.24949 73.9383C24.5526 77.3943 34.3737 76.212 33.5238 70.5734C33.5238 70.2096 33.3349 69.8458 33.1461 69.3911C32.7683 68.2088 32.0129 67.2084 30.9741 66.2989C29.9353 65.3895 28.8021 64.7529 27.4801 64.1163C26.158 63.4796 24.6471 63.0249 23.0417 62.4792C21.4363 61.9336 19.831 61.297 18.1312 60.5694C16.4314 59.8418 14.826 59.0233 13.2207 58.0229C11.6153 57.0225 10.1044 55.7493 8.78229 54.2032C7.46022 52.6572 6.2326 50.7473 5.19383 48.6556C4.15506 46.5638 3.3996 43.9264 2.833 40.6524C2.2664 37.3784 2.17196 33.8315 2.2664 29.9208C2.45526 25.6464 3.1163 21.8267 4.24949 18.4617C5.38269 15.0968 6.79919 12.3684 8.68786 10.1857C10.5765 8.00302 12.6541 6.27506 15.2038 4.91088C17.7534 3.5467 20.3976 2.54631 23.1361 2.00064C25.8747 1.45497 28.8966 1.18213 32.1073 1.18213C40.7952 1.18213 47.6888 2.63725 52.6938 5.63845C53.1659 5.91128 53.5436 6.45696 53.9214 7.27546C54.2991 8.09397 54.3936 9.00342 54.3936 9.82193V14.9149C54.3936 15.6424 54.3936 16.6428 54.3936 17.9161C54.3936 19.1893 54.3936 20.1897 54.2991 21.0082C54.2047 21.8267 54.2047 22.8271 54.1102 23.8275C54.0158 24.8279 53.9214 25.7374 53.7325 26.4649C53.5437 27.1925 53.3548 27.8291 53.1659 28.3748C52.977 28.9204 52.6937 29.4661 52.316 29.7389C51.9383 30.0118 51.655 30.1027 51.1828 30.0118C47.9721 29.3752 45.5168 28.9204 43.817 28.6476C42.1172 28.3748 40.0397 28.011 37.49 27.7382C34.9403 27.4653 32.9572 27.2834 31.6351 27.4653C30.3131 27.6472 28.991 27.92 27.5745 28.3748C26.158 28.8295 25.2137 29.5571 24.7415 30.5575C24.2693 31.5578 24.0805 32.922 24.1749 34.559H23.986Z" fill="#FF575B"/>
<path d="M91.3277 0.0915527C96.2382 0.0915527 100.677 1.001 104.454 2.8199C108.231 4.63881 111.442 7.27622 113.897 10.4593C116.352 13.6424 118.336 17.7349 119.941 22.4641C121.546 27.1932 122.679 32.1952 123.246 37.4701C123.813 42.7449 124.19 48.5654 124.19 54.8406C124.19 58.2965 124.096 61.6615 123.813 64.8446C123.529 68.0277 123.152 71.3927 122.491 75.0305C121.83 78.6683 120.98 81.9423 119.941 84.9435C118.902 87.9447 117.58 90.8549 115.786 93.6742C113.992 96.4935 112.009 98.8581 109.742 100.768C107.476 102.678 104.737 104.224 101.432 105.406C98.1269 106.588 94.6328 107.134 90.6666 107.134C85.6617 107.134 81.2233 106.316 77.3516 104.588C73.4798 102.86 70.2691 100.495 67.7194 97.403C65.1697 94.3109 63.0921 90.4002 61.3923 85.6711C59.6925 80.9419 58.6538 75.849 57.9927 70.1194C57.3317 64.3899 57.0484 58.1146 57.1428 51.0209C57.1428 45.2004 57.615 39.8346 58.3705 34.8326C59.1259 29.8307 60.448 25.1924 62.2422 20.8271C64.0365 16.4617 66.2084 12.8239 68.7581 9.8227C71.3078 6.8215 74.5186 4.36598 78.2959 2.63802C82.0732 0.910058 86.3227 0.0915527 90.9499 0.0915527H91.3277ZM92.1776 29.5578C87.4559 29.5578 84.1508 31.6496 82.2621 35.7421C80.3734 39.8346 79.4291 46.2918 79.3346 54.8406C79.2402 70.5741 83.112 78.4864 90.8555 78.4864C98.599 78.4864 102.282 69.9375 102.282 52.8398C102.282 50.7481 102.282 48.8382 102.093 47.0193C101.904 45.2004 101.715 43.1996 101.338 40.926C100.96 38.6524 100.393 36.7425 99.6378 35.1964C98.8823 33.6504 97.938 32.2862 96.6159 31.1948C95.2939 30.1035 93.7829 29.5578 92.0831 29.5578H92.1776Z" fill="#FF575B"/>
<path d="M129.384 1.91004C131.273 1.91004 134.2 1.91004 137.978 1.91004C141.755 1.91004 144.966 1.91004 147.327 1.91004C152.709 1.91004 157.148 2.09193 160.642 2.54665C164.136 3.00138 166.874 3.81989 168.952 5.09312C172.824 7.4577 176.034 11.0046 178.678 15.8247C181.323 20.6448 182.739 25.7377 183.022 31.1944C183.211 35.3779 183.022 39.1976 182.55 42.7445C182.078 46.2913 181.228 49.3835 180.095 51.9299C178.962 54.4764 177.64 56.841 176.034 58.8418C174.429 60.8426 172.729 62.5705 170.935 63.9347C169.141 65.2989 167.252 66.3902 165.174 67.2997C163.097 68.2091 161.114 68.8458 159.32 69.3005C157.525 69.7552 155.637 69.9371 153.748 70.0281C152.709 70.2099 151.293 70.2099 149.687 70.2099C149.687 73.0292 149.876 77.7584 150.065 84.3974C150.254 91.0364 150.348 96.2203 150.443 99.8581C150.443 100.04 150.443 100.404 150.443 100.949C150.443 101.495 150.443 101.95 150.443 102.314C150.443 102.677 150.443 103.041 150.443 103.496C150.443 103.951 150.443 104.223 150.254 104.405C150.065 104.587 149.971 104.769 149.782 104.769H128.818C128.818 104.769 128.346 104.587 128.251 104.314C128.157 104.042 128.062 103.678 127.968 103.132C127.873 102.586 127.968 102.223 127.968 101.768C127.968 101.313 127.968 100.859 127.968 100.313C127.968 99.7672 127.968 99.4034 127.968 99.2215C127.968 93.6738 127.968 85.8525 127.968 75.8485C127.968 65.8446 127.968 58.478 127.968 53.7488C128.062 38.8338 127.968 23.9188 127.496 9.18566C127.496 4.18367 128.062 1.63721 129.195 1.63721L129.384 1.91004ZM149.026 43.472C149.026 43.472 149.026 44.1086 149.215 44.2905C149.404 44.4724 149.499 44.7453 149.593 44.8362C149.687 44.9272 149.971 45.0181 150.254 45.109C150.537 45.2 150.821 45.2 150.915 45.2H152.332C155.07 45.2 157.242 44.4724 158.942 43.0173C160.642 41.5622 161.492 39.1976 161.492 35.8326C161.492 32.6495 160.453 30.3759 158.375 29.0117C156.298 27.6475 153.842 27.1019 150.915 27.5566C150.348 27.5566 149.782 27.9204 149.215 28.557C148.649 29.1936 148.46 30.1031 148.46 31.2854C148.46 35.6507 148.649 39.7433 148.932 43.472H149.026Z" fill="#FF575B"/>
<path d="M187.366 1.9102C188.877 1.9102 191.144 1.9102 194.165 1.81925C197.187 1.72831 200.02 1.72831 202.57 1.72831C205.12 1.72831 207.386 1.72831 209.464 1.9102C209.841 1.9102 210.03 2.45587 210.219 3.36532C210.408 4.27478 210.502 5.63896 210.502 7.54881C210.502 9.45866 210.502 11.1866 210.502 12.9146C210.502 14.6425 210.408 16.8252 210.313 19.6445C210.219 22.4638 210.125 24.6465 210.125 26.1016C210.125 26.9202 210.125 27.8296 210.125 28.6481C210.125 29.4666 210.125 30.6489 210.125 32.104C210.125 32.2859 210.125 32.6497 210.125 33.2863C210.125 33.9229 210.125 34.4686 210.125 34.8324C210.125 35.1962 210.125 35.7418 210.219 36.1966C210.313 36.6513 210.408 37.106 210.691 37.3789C210.975 37.6517 211.258 37.8336 211.636 37.8336C212.769 37.9245 213.902 38.0155 215.13 38.0155C216.357 38.0155 217.774 38.0155 219.474 38.0155C221.173 38.0155 222.306 38.0155 223.062 38.0155C223.156 38.0155 223.44 38.0155 223.912 38.0155C224.384 38.0155 224.762 38.0155 224.951 38.0155C225.139 38.0155 225.517 38.0155 225.801 37.8336C226.084 37.6517 226.367 37.5608 226.556 37.3789C226.745 37.197 226.745 36.8332 226.745 36.3785V34.0139L226.65 9.45866C226.65 9.09488 226.65 8.45826 226.65 7.54881C226.65 6.63935 226.65 5.91179 226.556 5.18423C226.462 4.45667 226.556 3.7291 226.556 3.00154C226.556 2.27398 226.745 1.63737 226.934 1.27359C227.123 0.909805 227.406 0.636963 227.784 0.636963C228.728 0.636963 229.767 0.636963 230.994 0.636963C232.222 0.636963 233.166 0.636963 234.016 0.636963C240.627 0.818853 244.593 0.818856 246.009 0.72791C246.67 0.72791 247.142 0.72791 247.52 0.72791C247.898 0.72791 248.181 1.00074 248.465 1.36452C248.748 1.72831 248.937 2.27398 248.937 3.00154V7.27597C248.37 40.7438 248.276 72.3018 248.842 102.041C248.842 102.587 248.748 103.041 248.559 103.405C248.37 103.769 248.087 104.042 247.898 104.224C247.709 104.406 247.237 104.587 246.67 104.678C246.104 104.769 245.726 104.86 245.348 104.86C244.97 104.86 244.404 104.86 243.648 104.86H230.711C228.822 104.86 227.784 104.587 227.406 104.133C227.028 103.678 226.839 102.496 226.839 100.677V67.2089C226.839 67.2089 226.839 66.8451 226.839 66.5723C226.839 66.2995 226.839 66.1176 226.839 65.9357C226.839 65.7538 226.839 65.5719 226.65 65.39C226.462 65.2081 226.462 65.1172 226.367 65.0262C226.273 64.9353 226.084 64.9353 225.989 64.9353H223.912C222.495 64.9353 220.418 64.9353 217.585 65.1172C214.752 65.2991 212.674 65.2991 211.258 65.2991C210.975 65.2991 210.786 65.2991 210.691 65.5719C210.597 65.8447 210.502 66.0266 210.408 66.3904C210.313 66.7542 210.408 67.027 210.408 67.3908C210.408 67.7546 210.408 68.0274 210.408 68.4822C210.408 68.9369 210.408 69.2097 210.408 69.3916V102.678C210.408 103.314 209.841 103.769 208.614 104.133C207.386 104.496 205.875 104.678 203.798 104.86C201.72 105.042 199.926 105.042 198.226 105.042C196.526 105.042 194.732 105.042 192.749 105.042C190.766 105.042 189.727 105.042 189.633 105.042C189.255 105.042 189.066 104.678 188.877 103.86C188.688 103.041 188.499 102.041 188.499 100.677C188.499 99.3126 188.499 97.9484 188.499 96.7661C188.499 95.5838 188.499 94.1287 188.499 92.4917C188.499 90.8547 188.499 89.7633 188.499 89.1267C188.499 80.6688 188.499 67.2999 188.027 48.9289C187.555 30.558 187.461 16.7343 187.461 7.45786C187.461 7.18502 187.461 6.54841 187.461 5.36612C187.461 4.18383 187.461 3.36532 187.461 2.81965C187.461 2.27398 187.555 2.00115 187.744 2.00115L187.366 1.9102Z" fill="#FF575B"/>
<path d="M277.739 12.2776C277.739 13.9146 277.55 15.4607 277.078 16.9158C276.606 18.3709 275.945 19.7351 275 21.0993C274.056 22.4635 272.734 23.4639 271.034 24.1914C269.334 24.919 267.351 25.3737 265.085 25.3737C260.552 25.3737 257.152 24.2824 254.981 22.1906C252.809 20.0989 251.77 16.643 251.77 12.0957C251.77 8.27602 252.903 5.27483 255.075 3.18309C257.247 1.09135 260.552 0 264.707 0C273.301 0 277.644 4.09254 277.644 12.2776H277.739ZM253.753 32.4675C253.753 32.4675 253.47 33.195 253.47 33.7407C253.47 34.2864 253.47 34.832 253.47 35.3777C253.47 35.9234 253.47 36.4691 253.47 37.3785C253.47 38.288 253.47 38.8336 253.47 39.1974C253.47 45.1998 253.564 55.3857 253.847 69.755C254.131 84.1244 254.225 94.3103 254.225 100.313C254.225 100.495 254.225 100.858 254.225 101.313C254.225 101.768 254.225 102.223 254.225 102.586C254.225 102.95 254.225 103.314 254.225 103.769C254.225 104.223 254.319 104.496 254.508 104.678C254.697 104.86 254.792 105.042 255.075 105.042H257.341C263.668 104.86 267.068 104.678 267.446 104.678C269.712 104.678 271.317 104.678 272.451 104.86C272.828 104.86 273.395 104.86 273.962 104.86C274.528 104.86 275.095 104.86 275.567 104.86C275.756 104.86 275.945 104.769 276.039 104.496C276.134 104.223 276.228 103.95 276.228 103.587C276.228 103.223 276.228 102.768 276.228 102.404C276.228 102.041 276.228 101.586 276.228 101.04C276.228 100.495 276.228 100.131 276.228 99.9489C275.85 70.3917 275.756 51.2931 275.85 42.7443C275.85 40.4707 275.945 38.3789 276.228 36.3781C276.417 34.1045 276.511 32.8312 276.228 32.4675C275.945 32.1037 275.284 31.9218 273.773 31.9218H254.603C254.603 31.9218 254.036 32.1037 253.942 32.3765L253.753 32.4675Z" fill="#FF575B"/>
<path d="M282.272 102.04V4.00095C282.272 2.63677 283.31 1.90921 285.293 1.90921C289.449 1.90921 296.248 1.72732 305.88 1.36354C315.512 0.999757 322.5 0.908816 326.939 0.817871C327.033 0.817871 327.222 0.817871 327.505 0.817871C327.788 0.817871 327.977 0.817871 328.166 0.817871C328.355 0.817871 328.544 0.817871 328.827 0.817871C329.111 0.817871 329.299 0.817873 329.488 0.908818C329.677 0.999764 329.866 0.999759 329.96 1.0907C330.055 1.18165 330.244 1.27259 330.338 1.45449C330.433 1.63638 330.338 1.81827 330.338 2.00016C330.149 6.63837 329.96 15.2782 329.772 27.7377C327.788 27.7377 323.822 27.8286 317.967 28.0105C312.113 28.1924 307.391 28.1924 303.708 28.1924C303.519 32.2849 303.519 36.3775 303.614 40.3791C303.614 41.7432 303.802 42.4708 304.086 42.4708C304.18 42.4708 304.369 42.4708 304.558 42.3799C304.747 42.2889 304.936 42.2889 305.124 42.2889C306.824 42.107 310.318 41.9251 320.045 41.7432C320.234 41.7432 320.423 41.7432 320.706 41.7432C320.989 41.7432 321.178 41.7432 321.461 41.7432C321.745 41.7432 321.839 41.7432 322.028 41.7432C322.217 41.7432 322.406 41.7432 322.5 41.9251C322.595 42.107 322.689 42.198 322.689 42.3799V46.5633C322.5 55.476 322.311 61.2055 322.217 63.752C322.217 64.4796 322.122 64.9343 321.839 65.1162C321.556 65.2981 321.178 65.389 320.423 65.389C317.684 65.389 316.173 65.5709 311.357 65.7528C306.541 65.9347 303.991 65.9347 303.802 65.9347C303.802 67.026 303.708 68.3902 303.708 69.8453C303.708 71.3005 303.708 72.8465 303.708 74.5745C303.708 76.3025 303.708 77.5757 303.708 78.3033C305.88 78.3033 310.035 78.1214 316.173 77.7576C322.311 77.3938 326.844 77.2119 329.866 77.2119C330.433 77.2119 330.716 77.2119 330.716 77.3029C330.716 77.3938 330.716 77.9395 330.716 79.0308C330.055 88.9439 329.583 96.7651 329.583 102.495C329.583 104.132 329.016 105.041 327.788 105.041H325.522C304.747 105.041 290.865 105.041 283.877 104.95C282.649 104.95 282.083 104.041 282.083 102.131L282.272 102.04Z" fill="#FF575B"/>
<path d="M1.88997 121.32C3.77995 121.32 6.70941 121.32 10.4894 121.32C14.2693 121.32 17.4823 121.32 19.8447 121.32C25.2312 121.32 29.6726 121.505 33.1691 121.969C36.6655 122.433 39.406 123.269 41.485 124.568C45.3594 126.981 48.5724 130.601 51.2183 135.521C53.8643 140.44 55.2818 145.637 55.5653 151.206C55.7543 155.476 55.5653 159.374 55.0928 162.994C54.6203 166.614 53.7698 169.77 52.6358 172.368C51.5018 174.967 50.1788 177.38 48.5724 179.422C46.9659 181.464 45.2649 183.228 43.4694 184.62C41.674 186.012 39.784 187.126 37.705 188.054C35.626 188.982 33.6416 189.632 31.8461 190.096C30.0506 190.56 28.1606 190.746 26.2707 190.839C25.2312 191.024 23.8137 191.024 22.2072 191.024C22.2072 193.902 22.3962 198.728 22.5852 205.504C22.7742 212.279 22.8687 217.57 22.9632 221.282C22.9632 221.468 22.9632 221.839 22.9632 222.396C22.9632 222.953 22.9632 223.417 22.9632 223.788C22.9632 224.159 22.9632 224.531 22.9632 224.995C22.9632 225.459 22.9632 225.737 22.7742 225.923C22.5852 226.109 22.4907 226.294 22.3017 226.294H1.32299C1.32299 226.294 0.850488 226.109 0.755989 225.83C0.661491 225.552 0.566994 225.18 0.472496 224.624C0.377997 224.067 0.472496 223.695 0.472496 223.231C0.472496 222.767 0.472496 222.303 0.472496 221.746C0.472496 221.189 0.472496 220.818 0.472496 220.632C0.472496 214.971 0.472496 206.989 0.472496 196.779C0.472496 186.569 0.472496 179.051 0.472496 174.225C0.566994 159.003 0.472494 143.781 0 128.745C0 123.64 0.566996 121.041 1.70098 121.041L1.88997 121.32ZM21.5457 163.736C21.5457 163.736 21.5457 164.386 21.7347 164.572C21.9237 164.757 22.0182 165.036 22.1127 165.129C22.2072 165.222 22.4907 165.314 22.7742 165.407C23.0577 165.5 23.3412 165.5 23.4357 165.5H24.8532C27.5936 165.5 29.7671 164.757 31.4681 163.272C33.1691 161.787 34.0196 159.374 34.0196 155.94C34.0196 152.691 32.9801 150.371 30.9011 148.979C28.8221 147.587 26.3652 147.03 23.4357 147.494C22.8687 147.494 22.3017 147.865 21.7347 148.515C21.1677 149.164 20.9787 150.093 20.9787 151.299C20.9787 155.754 21.1677 159.931 21.4512 163.736H21.5457Z" fill="#FF575B"/>
<path d="M64.7314 121.32H84.7652C84.7652 121.32 85.1432 121.413 85.3322 121.599C85.5212 121.784 85.6157 122.063 85.7102 122.527C85.8047 122.991 85.8047 123.362 85.8992 123.733C85.9937 124.105 85.8992 124.661 85.9937 125.311C86.0882 125.961 85.9937 126.425 85.9937 126.889C85.9937 127.353 85.9937 127.817 85.9937 128.467C85.9937 129.117 85.9937 129.488 85.9937 129.766C85.6157 144.06 85.5212 157.147 85.5212 169.12C85.5212 181.093 85.5212 189.632 85.8047 194.366C85.8047 196.037 86.0882 196.965 86.6552 197.15C88.9231 197.429 91.7581 197.522 95.2546 197.429C98.751 197.336 113.02 197.243 116.139 197.429C119.257 197.615 120.864 197.8 120.958 198.264C120.958 200.956 120.958 205.69 120.864 212.279C120.864 214.321 120.769 216.178 120.864 217.756C120.958 219.333 120.864 220.633 120.864 221.747C120.864 222.86 120.864 223.789 120.864 224.438C120.864 225.088 120.675 225.645 120.486 226.016C120.297 226.387 120.013 226.48 119.541 226.48H65.5819C65.5819 226.48 65.1094 226.387 64.9204 226.109C64.7314 225.831 64.5425 225.552 64.448 225.088C64.3535 224.624 64.259 224.253 64.1645 223.789C64.07 223.324 64.07 222.768 64.07 222.118C64.07 221.468 64.07 220.818 64.07 220.447V217.291C64.07 213.393 63.881 206.246 63.692 195.665C63.503 185.084 63.4085 176.731 63.314 170.42C63.314 166.428 63.314 152.599 63.503 128.838C63.503 128.56 63.503 128.003 63.503 127.167C63.503 126.332 63.503 125.59 63.503 125.033C63.503 124.476 63.503 123.919 63.5975 123.269C63.692 122.619 63.7865 122.063 64.07 121.784C64.3535 121.506 64.5424 121.32 64.9204 121.32H64.7314Z" fill="#FF575B"/>
<path d="M95.5383 192.882C95.5383 192.882 95.1603 192.139 95.1603 191.489C95.1603 190.84 95.1603 190.283 95.1603 189.819C95.1603 189.355 95.3493 188.705 95.5383 187.869C95.7273 187.034 95.8218 186.663 95.8218 186.57C102.248 155.941 106.595 144.339 108.957 133.294C109.146 132.459 109.335 131.623 109.713 130.695C110.091 129.767 110.469 128.467 110.942 126.982C111.414 125.497 112.076 124.291 112.832 123.27C113.588 122.249 114.344 121.692 115.005 121.599C123.604 120.578 130.125 120.114 134.566 120.114C135.7 120.114 136.74 121.042 137.874 122.898C139.008 124.755 139.764 126.89 140.331 129.21C140.803 131.252 142.788 139.141 146.284 152.971C149.781 166.8 152.616 178.774 154.978 188.89C157.34 199.007 159.608 209.774 161.971 221.283C162.065 221.933 162.16 222.49 162.16 222.954C162.16 223.418 162.16 223.882 161.971 224.253C161.782 224.624 161.687 224.903 161.593 225.089C161.498 225.274 161.215 225.553 160.931 225.645C160.648 225.738 160.27 225.924 160.081 226.017C159.892 226.11 159.514 226.202 159.041 226.202C158.569 226.202 158.191 226.202 157.907 226.202H141.748C141.276 226.202 140.803 226.11 140.331 225.831C139.858 225.553 139.575 225.274 139.291 224.81C139.008 224.346 138.724 223.882 138.535 223.418C138.346 222.954 138.157 222.397 137.968 221.747C137.779 221.097 137.685 220.541 137.59 220.169L137.307 218.684C137.212 218.127 137.118 217.756 137.118 217.663C136.929 216.642 136.362 212.837 135.511 206.061C134.661 199.286 133.999 195.109 133.716 193.531C133.621 192.974 133.243 187.127 132.771 186.849C132.298 186.57 132.015 186.477 131.637 186.477C131.259 186.477 130.692 186.477 129.841 186.477C128.991 186.477 128.424 186.477 127.951 186.477C127.951 186.477 119.257 186.57 118.69 186.663C118.029 186.756 117.178 192.789 116.706 192.789C116.233 192.789 113.115 192.974 112.737 193.067C112.359 193.16 111.887 193.16 111.32 193.16C110.753 193.16 110.375 193.16 110.091 193.16C109.808 193.16 109.241 193.16 108.485 193.16H101.114C101.114 193.16 100.263 193.16 99.6962 193.16C99.1292 193.16 98.6567 193.16 98.2787 193.16C97.9007 193.16 97.5227 193.16 97.1447 193.16C96.7667 193.16 96.3888 193.067 96.1053 192.974C95.8218 192.882 95.6328 192.696 95.4438 192.51L95.5383 192.882ZM122.848 161.788C123.604 161.788 125.778 161.881 129.274 161.881C129.652 161.881 129.841 161.881 130.03 161.603C130.219 161.324 130.314 161.139 130.314 160.767C130.314 160.396 130.314 160.025 130.314 159.839C130.314 159.654 130.314 159.189 130.125 158.725C129.936 158.261 129.936 157.89 129.936 157.89C129.747 156.869 129.463 155.384 128.991 153.342C128.518 151.3 128.235 149.629 127.951 148.237C127.573 146.288 127.006 145.267 125.967 145.267C125.778 145.267 125.589 145.267 125.4 145.36C125.211 145.453 125.116 145.546 125.022 145.731C124.927 145.917 124.833 146.102 124.738 146.288C124.644 146.474 124.549 146.659 124.455 146.938C124.36 147.216 124.36 147.402 124.266 147.587C124.171 147.773 124.266 148.052 124.171 148.33C124.077 148.608 124.077 148.887 124.077 149.073C123.888 150.186 123.51 151.764 123.132 153.713C122.754 155.662 122.376 157.24 122.187 158.54C121.714 160.674 121.903 161.788 122.754 161.881L122.848 161.788Z" fill="#FF575B"/>
<path d="M169.909 131.437V127.725C169.909 124.383 169.909 122.434 170.287 121.877C170.665 121.32 171.61 121.135 173.311 121.32C173.878 121.32 174.35 121.32 174.728 121.413C181.721 121.042 186.352 121.042 188.714 121.413H189.754C190.51 121.413 191.077 121.692 191.455 122.249C192.116 122.62 192.589 122.991 192.872 123.641C196.841 133.201 201.944 146.473 208.275 163.459C208.464 163.923 208.748 164.665 209.031 165.501C209.315 166.336 209.693 167.078 209.882 167.728C210.071 168.378 210.354 168.935 210.638 169.585C210.921 170.234 211.11 170.698 211.299 170.977C211.488 171.255 211.677 171.441 211.772 171.348C211.961 171.162 212.15 170.605 212.15 169.585C212.15 168.564 212.15 167.078 211.961 165.315C211.772 163.552 211.772 162.066 211.772 161.138C211.583 147.123 211.583 136.728 211.583 129.952C211.583 129.395 211.583 128.653 211.583 127.817C211.583 126.982 211.583 126.332 211.583 125.776V124.105C211.583 123.455 211.583 122.991 211.583 122.62C211.583 122.249 211.677 121.877 211.772 121.599C211.866 121.32 211.961 121.042 212.15 120.856C212.339 120.671 212.528 120.671 212.811 120.671H219.048C222.072 120.856 224.907 121.042 227.553 121.042C228.12 121.042 228.782 121.042 229.349 121.042C229.916 121.042 230.388 121.042 230.766 120.949C231.144 120.856 231.428 120.949 231.806 120.949C232.184 120.949 232.373 120.949 232.562 120.949C232.751 120.949 232.845 121.042 232.94 121.32C233.034 121.599 233.129 121.784 233.223 121.97C233.318 122.156 233.223 122.527 233.223 123.084C233.223 123.641 233.223 124.198 233.223 124.662C233.223 125.126 233.223 125.868 233.223 126.796C233.223 127.725 233.223 128.746 233.223 129.581C233.223 138.027 233.223 150.743 233.601 167.45C233.601 170.977 233.601 178.402 233.696 189.54C233.79 200.678 233.885 209.402 234.074 215.714C234.074 216.178 234.074 216.828 234.074 217.756C234.074 218.87 234.074 219.983 234.074 221.004C234.074 222.025 233.979 222.861 233.885 223.603C233.79 224.346 233.507 224.903 233.129 225.274C232.751 225.645 232.278 225.831 231.617 225.831H218.576C217.82 225.831 216.969 225.831 216.119 225.831C215.268 225.831 214.607 225.831 214.323 225.924C214.04 226.016 213.567 225.924 213.095 225.924C212.528 225.924 212.055 225.924 211.866 225.831C209.693 220.54 204.684 207.825 196.652 187.684C196.274 186.848 195.802 185.456 195.14 183.414C194.479 181.372 193.912 179.794 193.439 178.773C192.967 177.752 192.589 177.195 192.211 177.195C191.833 177.195 191.549 177.752 191.455 178.959C191.36 180.166 191.455 182.022 191.455 184.621C191.455 187.22 191.644 188.797 191.644 189.54C191.455 201.977 191.455 211.444 191.455 217.756C191.455 218.684 191.455 219.612 191.455 220.54C191.455 221.469 191.455 222.211 191.455 222.768C191.455 223.325 191.455 223.789 191.455 224.346C191.455 224.903 191.455 225.274 191.455 225.46C191.455 225.645 191.455 225.831 191.266 226.109C191.077 226.388 190.982 226.481 190.888 226.481C190.793 226.481 190.51 226.481 190.226 226.481C189.943 226.481 189.565 226.481 189.187 226.481C188.809 226.481 188.431 226.481 187.769 226.388C187.108 226.295 186.541 226.388 185.974 226.388C184.84 226.388 183.233 226.388 181.154 226.573C179.075 226.759 177.847 226.759 177.469 226.759H171.232C171.232 226.759 170.57 226.573 170.381 226.295C170.192 226.016 170.003 225.552 170.003 224.995C170.003 224.439 170.003 223.789 169.909 222.954C169.814 222.118 169.909 221.283 169.909 220.355C169.909 219.427 169.909 218.406 169.909 217.292C169.72 204.576 169.814 191.118 170.287 176.917C170.381 169.306 170.476 164.294 170.476 161.974C170.476 159.653 170.476 154.548 170.381 146.845C170.287 139.141 170.192 134.129 170.192 131.716L169.909 131.437Z" fill="#FF575B"/>
<path d="M265.352 154.548C265.352 155.477 265.825 156.219 266.581 156.869C267.337 157.519 268.282 157.983 269.416 158.447C270.55 158.911 271.873 159.282 273.385 159.746C274.897 160.21 276.409 160.767 278.11 161.417C279.811 162.067 281.323 162.902 283.024 163.923C284.725 164.944 286.237 166.243 287.654 167.914C289.072 169.585 290.395 171.534 291.623 173.761C292.852 175.989 293.702 178.773 294.364 182.208C295.025 185.642 295.403 189.447 295.498 193.717C295.498 213.579 288.788 224.624 275.464 226.852C273.574 227.13 271.211 227.316 268.282 227.223C265.352 227.13 262.328 227.038 259.115 226.759C255.903 226.481 252.879 225.924 249.949 225.088C247.02 224.253 244.846 223.232 243.523 222.025C242.767 221.376 242.2 220.169 241.917 218.498C241.633 216.828 241.444 213.672 241.35 208.846C241.35 205.783 241.35 203.37 241.35 201.42C241.35 199.471 241.35 197.986 241.633 196.965C241.917 195.944 242.106 195.202 242.389 194.83C242.673 194.459 243.145 194.366 243.807 194.459C244.09 194.459 244.657 194.552 245.602 194.738C265.919 198.265 275.747 197.058 274.897 191.303C274.897 190.932 274.708 190.561 274.519 190.097C274.141 188.89 273.385 187.869 272.345 186.941C271.306 186.013 270.172 185.363 268.849 184.714C267.526 184.064 266.014 183.6 264.407 183.043C262.801 182.486 261.194 181.836 259.493 181.094C257.792 180.351 256.186 179.516 254.58 178.495C252.973 177.474 251.461 176.175 250.138 174.597C248.815 173.019 247.587 171.07 246.547 168.935C245.508 166.8 244.752 164.108 244.185 160.767C243.618 157.426 243.523 153.806 243.618 149.815C243.807 145.453 244.468 141.554 245.602 138.12C246.736 134.686 248.154 131.901 250.044 129.674C251.934 127.446 254.013 125.683 256.564 124.291C259.115 122.898 261.761 121.877 264.502 121.32C267.242 120.764 270.266 120.485 273.479 120.485C282.173 120.485 289.072 121.97 294.08 125.033C294.553 125.312 294.931 125.868 295.309 126.704C295.687 127.539 295.781 128.467 295.781 129.303V134.5C295.781 135.243 295.781 136.264 295.781 137.563C295.781 138.863 295.781 139.884 295.687 140.719C295.592 141.554 295.592 142.575 295.498 143.596C295.403 144.617 295.309 145.545 295.12 146.288C294.931 147.03 294.742 147.68 294.553 148.237C294.364 148.794 294.08 149.351 293.702 149.629C293.324 149.908 293.041 150 292.568 149.908C289.355 149.258 286.898 148.794 285.197 148.515C283.496 148.237 281.417 147.866 278.866 147.587C276.314 147.309 274.33 147.123 273.007 147.309C271.684 147.494 270.361 147.773 268.943 148.237C267.526 148.701 266.581 149.444 266.108 150.465C265.636 151.486 265.447 152.878 265.541 154.548H265.352Z" fill="#FF575B"/>
<path d="M1.86304 241.326C3.72608 241.326 6.6138 241.326 10.3399 241.326C14.066 241.326 17.2331 241.326 19.5619 241.326C24.8716 241.326 29.2498 241.509 32.6964 241.967C36.143 242.425 38.8444 243.249 40.8938 244.531C44.713 246.912 47.8802 250.483 50.4884 255.336C53.0967 260.19 54.494 265.318 54.7734 270.812C54.9597 275.024 54.7734 278.87 54.3077 282.442C53.8419 286.013 53.0035 289.126 51.8857 291.69C50.7679 294.254 49.4638 296.635 47.8802 298.65C46.2966 300.664 44.6199 302.404 42.85 303.778C41.0801 305.151 39.217 306.25 37.1677 307.166C35.1183 308.082 33.1621 308.723 31.3923 309.18C29.6224 309.638 27.7593 309.821 25.8963 309.913C24.8716 310.096 23.4743 310.096 21.8907 310.096C21.8907 312.935 22.077 317.697 22.2634 324.381C22.4497 331.066 22.5428 336.286 22.636 339.949C22.636 340.132 22.636 340.498 22.636 341.047C22.636 341.597 22.636 342.055 22.636 342.421C22.636 342.787 22.636 343.154 22.636 343.611C22.636 344.069 22.636 344.344 22.4497 344.527C22.2633 344.71 22.1702 344.893 21.9839 344.893H1.30413C1.30413 344.893 0.838368 344.71 0.745216 344.436C0.652064 344.161 0.558914 343.795 0.465762 343.245C0.37261 342.696 0.465762 342.329 0.465762 341.872C0.465762 341.414 0.465762 340.956 0.465762 340.406C0.465762 339.857 0.465762 339.491 0.465762 339.308C0.465762 333.722 0.465762 325.846 0.465762 315.774C0.465762 305.701 0.465762 298.283 0.465762 293.522C0.558914 278.504 0.46576 263.486 0 248.652C0 243.615 0.558915 241.051 1.67674 241.051L1.86304 241.326ZM21.2387 283.174C21.2387 283.174 21.2387 283.815 21.425 283.998C21.6113 284.181 21.7044 284.456 21.7976 284.548C21.8907 284.639 22.1702 284.731 22.4497 284.822C22.7291 284.914 23.0086 284.914 23.1017 284.914H24.499C27.2004 284.914 29.3429 284.181 31.0196 282.716C32.6964 281.251 33.5348 278.87 33.5348 275.482C33.5348 272.277 32.5101 269.988 30.4607 268.614C28.4114 267.241 25.9894 266.691 23.1017 267.149C22.5428 267.149 21.9839 267.515 21.425 268.156C20.8661 268.797 20.6798 269.713 20.6798 270.904C20.6798 275.299 20.8661 279.42 21.1455 283.174H21.2387Z" fill="#FF575B"/>
<path d="M110.851 345.534H91.3824C91.3824 345.534 90.8234 345.35 90.6371 345.076C90.4508 344.801 90.3577 344.343 90.2645 343.885C90.1714 343.427 90.2645 342.786 90.2645 342.329C90.2645 341.871 90.2645 341.23 90.2645 340.589C90.2645 339.948 90.2645 339.49 90.2645 339.124V337.475C85.1412 343.702 78.6205 346.175 70.7026 345.076C65.7655 344.343 61.6669 341.321 58.4065 336.01C55.1462 330.699 53.5626 323.465 53.5626 314.216C53.5626 304.967 55.612 297.733 59.7107 291.69C63.8093 285.646 68.6533 282.258 74.4287 281.525C78.7137 280.976 83.7439 280.884 89.7056 281.159C89.4262 278.961 88.8673 277.13 88.0289 275.481C87.1905 273.833 86.1658 272.643 84.7686 271.819C83.3713 270.994 81.974 270.262 80.3904 269.804C78.8068 269.346 76.9438 269.071 74.8945 269.071C72.8451 269.071 70.7957 269.163 68.9327 269.438C67.0697 269.712 64.834 269.987 62.5052 270.445C60.0833 270.903 58.7791 269.896 58.686 267.423C58.4997 263.943 58.686 260.738 58.9654 257.9C59.2449 255.061 59.8038 251.398 60.6422 247.094C60.8285 246.087 61.8532 245.08 63.623 244.164C65.3929 243.248 67.7217 242.424 70.4231 241.783C73.1245 241.142 76.1986 240.776 79.5521 240.593C82.9055 240.41 86.1658 240.593 89.333 241.05C92.5002 241.508 95.481 242.424 98.3688 243.798C101.256 245.171 103.492 247.003 105.076 249.292C109.547 255.61 111.783 269.071 111.783 289.767C111.783 292.514 111.969 307.715 112.435 335.369C112.621 337.017 112.621 339.124 112.435 341.688C112.248 344.252 111.783 345.534 110.944 345.534H110.851ZM90.1714 316.322C90.1714 315.223 90.1714 313.575 90.1714 311.377C90.1714 309.18 90.1714 307.44 90.1714 306.249C87.47 306.066 84.6754 306.066 81.6945 306.158C80.763 306.158 79.9247 306.341 79.3657 306.524C78.8068 306.707 78.0616 306.982 77.3164 307.44C76.5712 307.898 76.0123 308.539 75.6397 309.454C75.2671 310.37 75.0807 311.561 75.0807 312.934C75.0807 314.857 75.826 316.322 77.2233 317.33C78.6205 318.337 80.2973 318.886 82.2535 318.886C85.2343 318.978 87.9357 318.154 90.4508 316.414L90.1714 316.322Z" fill="#FF575B"/>
<path d="M119.421 242.333C122.588 241.051 125.103 242.333 128.084 241.966C131.065 241.509 134.605 241.966 137.399 241.692C140.101 241.509 142.057 241.692 144.479 241.692C146.901 241.692 149.044 242.058 151.372 242.516C153.701 242.882 155.844 243.432 157.986 244.347C160.129 245.263 161.898 246.27 163.762 247.736C165.625 249.201 167.208 250.757 168.605 252.955C170.003 255.153 171.027 257.534 171.866 260.372C172.704 263.211 173.263 267.149 173.449 270.262C173.636 276.581 172.984 283.448 170.562 288.943C168.14 294.437 165.252 297.276 160.967 300.847C165.345 311.927 169.63 323.007 174.288 333.996C174.66 334.82 175.219 335.736 175.685 336.56C176.151 337.384 176.803 338.666 177.175 339.582C177.548 340.406 177.734 341.688 177.734 342.237C177.734 342.878 177.734 342.695 177.734 342.97C177.734 343.245 177.548 343.336 177.455 343.519C177.269 343.702 177.175 343.794 176.989 343.886C176.803 344.069 176.617 344.069 176.337 344.16C176.058 344.16 175.871 344.252 175.592 344.343C175.312 344.343 175.033 344.343 174.753 344.343C174.474 344.343 174.195 344.343 173.915 344.343C173.636 344.343 173.263 344.343 172.984 344.343C172.704 344.343 172.332 344.343 172.052 344.343C166.836 344.343 161.898 344.71 156.589 344.71C155.75 344.71 155.005 344.069 154.353 343.153C153.701 342.237 153.142 342.054 152.583 340.406C148.671 329.326 144.479 317.605 140.66 306.067C139.356 307.165 139.915 304.144 138.238 306.708C136.561 309.272 138.517 319.07 138.89 323.19C139.263 327.311 139.169 336.651 139.356 339.673C139.542 342.695 139.915 344.16 138.517 345.076C137.12 345.9 135.536 345.076 134.046 345.534C132.556 345.9 131.065 345.809 129.482 345.9C127.898 345.992 125.662 345.9 124.079 345.9C122.495 345.9 119.887 345.9 118.769 345.9C117.651 345.9 118.396 345.809 118.024 345.442C117.651 345.076 117.838 344.71 117.744 344.343C117.651 343.977 117.744 343.428 117.651 342.97C117.651 342.512 117.651 341.871 117.651 341.505C117.651 341.138 117.651 340.589 117.651 340.406C117.372 325.571 117.185 309.363 116.999 294.803C116.813 280.335 116.72 263.211 116.347 250.483C116.161 244.622 116.161 243.706 119.328 242.333H119.421ZM136.841 280.06C136.841 281.892 136.841 280.61 137.027 281.251C137.213 281.892 137.213 281.525 137.399 281.8C137.586 282.075 137.772 281.983 138.052 282.075C138.331 282.075 138.424 282.075 138.704 282.166C138.983 282.166 139.076 282.166 139.542 282.166C139.915 282.166 139.542 282.166 140.287 282.166C141.032 282.166 143.361 282.075 144.479 281.983C145.597 281.892 146.808 281.709 147.833 281.342C148.857 280.976 149.696 280.793 150.441 279.969C151.186 279.145 151.559 278.778 151.838 277.496C152.118 276.214 152.49 275.665 152.211 273.65C152.024 271.636 151.559 268.339 148.764 267.057C145.969 265.683 142.243 265.592 138.983 266.05C138.517 266.05 137.865 266.508 137.399 267.057C136.934 267.606 136.654 269.072 136.654 269.713C136.654 272.551 136.561 278.32 136.654 280.243L136.841 280.06Z" fill="#FF575B"/>
<path d="M198.321 241.326H203.258C205.214 241.326 209.406 241.143 216.02 240.96C222.634 240.777 227.384 240.593 230.551 240.593C233.719 240.593 237.538 240.502 242.102 240.593C246.667 240.685 250.393 240.685 253.374 240.96C253.653 240.96 253.84 241.143 253.84 241.418C253.84 243.157 253.84 245.447 253.84 248.194C253.84 250.941 253.84 253.322 253.84 255.428C253.84 257.534 253.746 259.457 253.56 261.563C253.56 261.746 253.56 262.113 253.56 262.662C253.56 263.212 253.56 263.669 253.56 264.036C253.56 264.402 253.56 264.768 253.374 265.135C253.187 265.501 253.187 265.867 253.001 266.05C252.815 266.233 252.629 266.325 252.442 266.417C251.324 266.6 249.927 266.6 248.437 266.6C243.313 266.783 233.719 266.783 219.653 266.783C219.466 278.962 219.466 288.577 219.466 295.536C219.466 300.756 219.56 308.814 219.839 319.711C220.118 330.608 220.212 337.568 220.212 340.59C220.212 340.864 220.212 341.231 220.212 341.688C220.212 342.146 220.212 342.604 220.212 343.062C220.212 343.52 220.212 343.886 220.212 344.252C220.212 344.619 220.212 344.985 220.025 345.168C219.839 345.351 219.746 345.534 219.56 345.534C218.255 345.534 217.231 345.534 216.392 345.443C214.25 345.26 212.666 345.26 211.455 345.26C210.803 345.26 207.263 345.351 201.115 345.626H198.88C198.88 345.626 198.414 345.534 198.321 345.26C198.228 344.985 198.135 344.71 198.041 344.344C197.948 343.978 198.041 343.52 198.041 343.154C198.041 342.787 198.041 342.329 198.041 341.872C198.041 341.414 198.041 341.047 198.041 340.864C198.041 334.18 197.948 325.846 197.762 315.774C197.576 305.701 197.482 298.009 197.482 292.789C197.482 291.141 197.482 288.943 197.482 286.288C197.482 283.632 197.482 280.244 197.482 276.306C197.482 272.369 197.482 269.255 197.482 266.874C189.378 267.058 183.51 267.149 179.877 267.332H177.269C176.523 267.332 176.151 265.867 176.151 262.845V262.479C176.151 254.879 176.151 249.842 175.964 247.278C175.778 243.432 176.244 241.509 177.362 241.509C177.734 241.509 178.666 241.509 180.156 241.509C181.647 241.509 182.485 241.509 182.671 241.509C186.491 241.692 191.707 241.692 198.321 241.601C198.321 241.601 198.507 241.509 198.693 241.509L198.321 241.326ZM228.316 271.636H232.973C232.973 271.636 234.836 271.636 238.19 271.636C241.543 271.636 243.22 271.636 243.406 271.636H247.226C248.716 271.636 249.461 271.911 249.648 272.186C249.834 272.46 249.741 273.834 249.648 276.123C249.461 278.046 249.275 280.244 249.275 282.533C249.089 291.141 249.275 310.279 249.648 340.132C249.648 340.315 249.648 340.681 249.648 341.231C249.648 341.78 249.648 342.238 249.648 342.604C249.648 342.97 249.648 343.337 249.648 343.795C249.648 344.252 249.648 344.527 249.461 344.71C249.275 344.893 249.182 345.077 248.996 345.077C247.785 345.077 246.76 345.077 245.922 344.985C243.779 344.802 242.195 344.802 240.985 344.802C240.612 344.802 237.258 344.893 231.017 345.168H228.782C228.782 345.168 228.316 345.077 228.223 344.802C228.13 344.527 228.036 344.252 227.943 343.886C227.85 343.52 227.943 343.062 227.943 342.696C227.943 342.329 227.943 341.872 227.943 341.414C227.943 340.956 227.943 340.59 227.943 340.406C227.943 334.363 227.85 324.107 227.571 309.638C227.291 295.17 227.198 284.914 227.198 278.87C227.198 278.504 227.198 277.955 227.198 277.13C227.198 276.306 227.198 275.574 227.198 275.116C227.198 274.658 227.198 274.109 227.198 273.468C227.198 272.827 227.384 272.46 227.571 272.186C227.757 271.911 227.943 271.728 228.223 271.728L228.316 271.636Z" fill="#FF575B"/>
<path d="M260.919 342.146V243.432C260.919 242.059 261.944 241.326 263.9 241.326C267.999 241.326 274.706 241.143 284.207 240.776C293.709 240.41 300.602 240.319 304.98 240.227C305.074 240.227 305.26 240.227 305.539 240.227C305.819 240.227 306.005 240.227 306.191 240.227C306.378 240.227 306.564 240.227 306.843 240.227C307.123 240.227 307.309 240.227 307.496 240.319C307.682 240.41 307.868 240.41 307.961 240.502C308.054 240.593 308.241 240.685 308.334 240.868C308.427 241.051 308.334 241.234 308.334 241.417C308.148 246.088 307.961 254.787 307.775 267.332C305.819 267.332 301.906 267.424 296.131 267.607C290.356 267.79 285.698 267.79 282.065 267.79C281.879 271.911 281.879 276.032 281.972 280.061C281.972 281.434 282.158 282.167 282.438 282.167C282.531 282.167 282.717 282.167 282.903 282.075C283.09 281.984 283.276 281.984 283.462 281.984C285.139 281.801 290.728 281.617 300.323 281.434C300.509 281.434 300.695 281.434 300.975 281.434C301.254 281.434 301.441 281.434 301.72 281.434C302 281.434 302.093 281.434 302.279 281.434C302.465 281.434 302.652 281.434 302.745 281.617C302.838 281.801 302.931 281.892 302.931 282.075V286.288C302.745 295.262 302.558 301.031 302.465 303.595C302.465 304.327 302.372 304.785 302.093 304.968C301.813 305.151 301.441 305.243 300.695 305.243C297.994 305.243 294.361 305.426 289.61 305.609C284.86 305.792 282.344 305.792 282.158 305.792C282.158 306.891 282.065 308.265 282.065 309.73C282.065 311.195 282.065 312.752 282.065 314.492C282.065 316.231 282.065 317.513 282.065 318.246C284.207 318.246 288.306 318.063 294.361 317.697C300.416 317.33 304.887 317.147 307.868 317.147C308.427 317.147 308.706 317.147 308.706 317.239C308.706 317.33 308.706 317.88 308.706 318.979C308.054 328.96 307.589 336.835 307.589 342.604C307.589 344.252 307.03 345.168 305.819 345.168H303.583C283.09 345.168 269.396 345.168 262.503 345.076C261.292 345.076 260.733 344.161 260.733 342.238L260.919 342.146Z" fill="#FF575B"/>
<path d="M340.005 274.2C340.005 275.116 340.471 275.848 341.216 276.489C341.962 277.13 342.893 277.588 344.011 278.046C345.129 278.504 346.433 278.87 347.923 279.328C349.414 279.786 350.904 280.335 352.581 280.976C354.258 281.617 355.748 282.441 357.425 283.449C359.102 284.456 360.592 285.738 361.989 287.386C363.386 289.035 364.691 290.958 365.902 293.155C367.113 295.353 367.951 298.1 368.603 301.488C369.255 304.876 369.628 308.631 369.721 312.843C369.721 332.439 363.107 343.337 349.973 345.534C348.11 345.809 345.781 345.992 342.893 345.901C340.005 345.809 337.024 345.717 333.857 345.443C330.69 345.168 327.709 344.619 324.822 343.794C321.934 342.97 319.791 341.963 318.487 340.773C317.742 340.132 317.183 338.941 316.904 337.293C316.624 335.645 316.438 332.531 316.345 327.769C316.345 324.747 316.345 322.367 316.345 320.444C316.345 318.521 316.345 317.055 316.624 316.048C316.904 315.041 317.09 314.308 317.369 313.942C317.649 313.576 318.115 313.484 318.767 313.576C319.046 313.576 319.605 313.667 320.537 313.85C340.564 317.33 350.252 316.14 349.414 310.462C349.414 310.096 349.227 309.73 349.041 309.272C348.668 308.081 347.923 307.074 346.899 306.158C345.874 305.243 344.756 304.602 343.452 303.961C342.148 303.32 340.657 302.862 339.074 302.312C337.49 301.763 335.907 301.122 334.23 300.389C332.553 299.657 330.97 298.833 329.386 297.825C327.802 296.818 326.312 295.536 325.008 293.979C323.704 292.423 322.493 290.5 321.468 288.394C320.443 286.287 319.698 283.632 319.139 280.335C318.58 277.039 318.487 273.467 318.58 269.53C318.767 265.226 319.419 261.38 320.537 257.992C321.654 254.604 323.052 251.857 324.915 249.659C326.778 247.461 328.827 245.721 331.342 244.348C333.857 242.974 336.466 241.967 339.167 241.417C341.868 240.868 344.849 240.593 348.016 240.593C356.586 240.593 363.387 242.058 368.324 245.08C368.789 245.355 369.162 245.904 369.535 246.729C369.907 247.553 370 248.468 370 249.293V254.421C370 255.153 370 256.16 370 257.442C370 258.724 370 259.732 369.907 260.556C369.814 261.38 369.814 262.387 369.721 263.395C369.628 264.402 369.535 265.318 369.348 266.05C369.162 266.783 368.976 267.424 368.789 267.973C368.603 268.523 368.324 269.072 367.951 269.347C367.578 269.621 367.299 269.713 366.833 269.621C363.666 268.98 361.244 268.523 359.567 268.248C357.891 267.973 355.841 267.607 353.326 267.332C350.811 267.057 348.855 266.874 347.551 267.057C346.247 267.241 344.942 267.515 343.545 267.973C342.148 268.431 341.216 269.164 340.751 270.171C340.285 271.178 340.098 272.552 340.192 274.2H340.005Z" fill="#FF575B"/>
</svg>
